<svg width="17" height="17" viewBox="0 0 17 17" fill="none" xmlns="http://www.w3.org/2000/svg">
<path fill-rule="evenodd" clip-rule="evenodd" d="M8.33333 16.6667C12.9357 16.6667 16.6667 12.9357 16.6667 8.33333C16.6667 3.73096 12.9357 0 8.33333 0C3.73096 0 0 3.73096 0 8.33333C0 12.9357 3.73096 16.6667 8.33333 16.6667ZM10.543 7.20971C10.7871 6.96563 10.7871 6.5699 10.543 6.32582C10.2989 6.08175 9.90322 6.08175 9.65914 6.32582L8.33332 7.65165L7.00749 6.32583C6.76342 6.08175 6.36769 6.08175 6.12361 6.32583C5.87953 6.5699 5.87953 6.96563 6.12361 7.20971L7.44943 8.53553L6.12361 9.86136C5.87953 10.1054 5.87953 10.5012 6.12361 10.7452C6.36769 10.9893 6.76342 10.9893 7.00749 10.7452L8.33332 9.41942L9.65914 10.7452C9.90322 10.9893 10.2989 10.9893 10.543 10.7452C10.7871 10.5012 10.7871 10.1054 10.543 9.86136L9.2172 8.53553L10.543 7.20971Z" fill="#081526"/>
</svg>
