<svg width="19" height="18" viewBox="0 0 19 18" fill="none" xmlns="http://www.w3.org/2000/svg">
<path d="M4.15549 16.2214L3.85693 16.9095V16.9095L4.15549 16.2214ZM1.9005 13.8591L1.20304 14.1348H1.20304L1.9005 13.8591ZM16.2662 13.8591L16.9636 14.1348V14.1348L16.2662 13.8591ZM14.0112 16.2214L14.3097 16.9095V16.9095L14.0112 16.2214ZM1.58333 7.80373L2.33039 7.87011L2.3671 7.45699L2.0367 7.20627L1.58333 7.80373ZM15.3333 4.05372V3.30372H15.3333L15.3333 4.05372ZM9.72314 3.12796L10.2535 3.65829V3.65829L9.72314 3.12796ZM11.4909 1.36019L12.0212 1.89052V1.89052L11.4909 1.36019ZM14.4372 1.36019L13.9069 1.89052V1.89052L14.4372 1.36019ZM14.6529 4.05371L14.653 4.80371L15.0357 4.80368L15.2603 4.49372L14.6529 4.05371ZM8.57425 3.12797L8.04392 3.6583V3.6583L8.57425 3.12797ZM6.80648 1.36021L6.27615 1.89054H6.27615L6.80648 1.36021ZM3.86021 1.36021L4.39054 1.89054V1.89054L3.86021 1.36021ZM9.08333 15.7204H9.83333V15.7204H9.08333ZM1.55627 7.78319L1.09613 8.37546H1.09613L1.55627 7.78319ZM16.5295 7.84298L16.0984 7.22927V7.22927L16.5295 7.84298ZM7.83333 15.8037C6.85188 15.8037 6.15512 15.8033 5.60699 15.7641C5.06631 15.7254 4.72696 15.6519 4.45404 15.5334L3.85693 16.9095C4.34973 17.1233 4.87859 17.2159 5.50005 17.2603C6.11405 17.3042 6.87337 17.3037 7.83333 17.3037V15.8037ZM0.83336 10.0061C0.83336 11.0132 0.832983 11.8045 0.874578 12.4432C0.91657 13.0881 1.00362 13.6305 1.20304 14.1348L2.59796 13.5833C2.48021 13.2855 2.40869 12.9184 2.37141 12.3457C2.33372 11.767 2.33336 11.0329 2.33336 10.0061H0.83336ZM4.45404 15.5334C3.62214 15.1724 2.9505 14.4749 2.59796 13.5833L1.20304 14.1348C1.69629 15.3824 2.64694 16.3844 3.85693 16.9095L4.45404 15.5334ZM15.8333 10.0061C15.8333 11.0328 15.833 11.767 15.7953 12.3457C15.758 12.9183 15.6865 13.2855 15.5687 13.5833L16.9636 14.1348C17.163 13.6305 17.2501 13.0881 17.2921 12.4432C17.3337 11.8044 17.3333 11.0132 17.3333 10.0061H15.8333ZM10.3333 17.3037C11.2933 17.3037 12.0526 17.3042 12.6666 17.2603C13.2881 17.2159 13.8169 17.1233 14.3097 16.9095L13.7126 15.5334C13.4397 15.6519 13.1004 15.7254 12.5597 15.7641C12.0115 15.8033 11.3148 15.8037 10.3333 15.8037V17.3037ZM15.5687 13.5833C15.2162 14.4749 14.5445 15.1724 13.7126 15.5334L14.3097 16.9095C15.5197 16.3844 16.4704 15.3824 16.9636 14.1348L15.5687 13.5833ZM2.33336 10.0061C2.33336 8.76279 2.27655 8.47605 2.33039 7.87011L0.836276 7.73735C0.775554 8.42077 0.83336 8.95015 0.83336 10.0061H2.33336ZM15.3333 4.80372C16.0697 4.80372 16.6667 5.40067 16.6667 6.13705H18.1667C18.1667 4.57224 16.8981 3.30372 15.3333 3.30372V4.80372ZM2.83333 3.30372C1.26853 3.30372 0 4.57224 0 6.13705H1.5C1.5 5.40067 2.09695 4.80372 2.83333 4.80372V3.30372ZM10.2535 3.65829L12.0212 1.89052L10.9606 0.829864L9.19281 2.59763L10.2535 3.65829ZM12.0212 1.89052C12.5419 1.36983 13.3862 1.36983 13.9069 1.89052L14.9675 0.829864C13.861 -0.276621 12.0671 -0.276621 10.9606 0.829864L12.0212 1.89052ZM9.19281 2.59763C8.93251 2.85793 8.50957 3.30414 8.35949 3.85738L9.80717 4.25009C9.84107 4.12513 9.98126 3.9305 10.2535 3.65829L9.19281 2.59763ZM13.9069 1.89052C14.376 2.3597 14.4228 3.09294 14.0455 3.61369L15.2603 4.49372C16.0631 3.38553 15.9661 1.82844 14.9675 0.829864L13.9069 1.89052ZM9.10458 2.59764L7.33681 0.829875L6.27615 1.89054L8.04392 3.6583L9.10458 2.59764ZM7.33681 0.829875C6.23033 -0.27661 4.43636 -0.27661 3.32988 0.829875L4.39054 1.89054C4.91123 1.36984 5.75545 1.36984 6.27615 1.89054L7.33681 0.829875ZM8.04392 3.6583C8.19174 3.80612 8.2907 3.99649 8.35949 4.25009L9.80717 3.85738C9.69199 3.43278 9.48927 2.98233 9.10458 2.59764L8.04392 3.6583ZM3.32988 0.829875C2.3313 1.82845 2.23428 3.38554 3.03712 4.49373L4.25184 3.6137C3.87457 3.09295 3.92136 2.35971 4.39054 1.89054L3.32988 0.829875ZM8.33333 4.05373L8.33333 15.7204H9.83333L9.83333 4.05373H8.33333ZM3.64448 4.80372L9.08333 4.80373L9.08334 3.30373L3.64448 3.30372L3.64448 4.80372ZM2.83333 7.47038C2.52455 7.47038 2.24218 7.36634 2.01641 7.19093L1.09613 8.37546C1.57578 8.7481 2.17965 8.97038 2.83333 8.97038V7.47038ZM2.01641 7.19093C1.70081 6.94574 1.5 6.56503 1.5 6.13705H0C0 7.04779 0.430535 7.85834 1.09613 8.37546L2.01641 7.19093ZM2.0367 7.20627L2.00964 7.18574L1.1029 8.38065L1.12996 8.40119L2.0367 7.20627ZM10.3333 15.8037H9.08333V17.3037H10.3333V15.8037ZM9.08333 15.8037H7.83333V17.3037H9.08333V15.8037ZM8.33333 15.7204L8.33333 16.5537L9.83333 16.5537L9.83333 15.7204L8.33333 15.7204ZM15.3333 7.47038H9.08333V8.97038H15.3333V7.47038ZM9.08333 7.47038H2.83333V8.97038H9.08333V7.47038ZM16.6667 6.13705C16.6667 6.58793 16.4436 6.98678 16.0984 7.22927L16.9606 8.45669C17.6885 7.9454 18.1667 7.09711 18.1667 6.13705H16.6667ZM16.0984 7.22927C15.882 7.38127 15.6192 7.47038 15.3333 7.47038V8.97038C15.9377 8.97038 16.4999 8.7803 16.9606 8.45669L16.0984 7.22927ZM17.3333 10.0061C17.3333 8.88642 17.3338 8.43873 17.2767 7.77835L15.7823 7.90762C15.8328 8.49207 15.8333 8.87352 15.8333 10.0061H17.3333ZM9.08334 4.80373L14.4372 4.80372L14.4372 3.30372L9.08333 3.30373L9.08334 4.80373ZM14.4372 4.80372L14.653 4.80371L14.6529 3.30371L14.4371 3.30372L14.4372 4.80372ZM14.4372 4.80372L15.3333 4.80372L15.3333 3.30372L14.4372 3.30372L14.4372 4.80372ZM3.64448 3.30372H2.83333V4.80372H3.64448V3.30372ZM2.83333 4.80372L5.95833 4.80372L5.95834 3.30372L2.83334 3.30372L2.83333 4.80372ZM5.95833 4.80372L9.08333 4.80373L9.08334 3.30373L5.95834 3.30372L5.95833 4.80372ZM3.64448 4.80372L5.95833 4.80372L5.95834 3.30372L3.64448 3.30372L3.64448 4.80372ZM9.08334 4.80373L14.6529 4.80371L14.6529 3.30371L9.08333 3.30373L9.08334 4.80373Z" fill="#5B6581"/>
</svg>
