<svg width="20" height="20" viewBox="0 0 20 20" fill="none" xmlns="http://www.w3.org/2000/svg">
<path d="M3.33362 8.83325C3.61633 8.83335 3.92238 8.96144 4.151 9.16821C4.3692 9.38892 4.49963 9.6902 4.49963 10.0002C4.49954 10.2849 4.37 10.5889 4.14612 10.8127C3.92224 11.0366 3.61831 11.1662 3.33362 11.1663C3.04138 11.1663 2.71512 11.0311 2.4967 10.8127C2.28588 10.6019 2.16671 10.3031 2.16663 10.0002C2.16663 9.7223 2.29061 9.41303 2.50647 9.15356C2.71433 8.95113 3.00819 8.83325 3.33362 8.83325Z" fill="#5B6581" stroke="#5B6581"/>
<path d="M10 11.6666C9.57147 11.6666 9.11909 11.4761 8.80956 11.1666C8.50004 10.8571 8.33337 10.4285 8.33337 9.99992C8.33337 9.57135 8.52385 9.14278 8.80956 8.80944C9.11909 8.49992 9.54766 8.33325 10 8.33325C10.4286 8.33325 10.8572 8.52373 11.1667 8.80944C11.4762 9.11897 11.6667 9.54754 11.6667 9.99992C11.6667 10.4285 11.4762 10.8571 11.1667 11.1666C10.8572 11.4761 10.4286 11.6666 10 11.6666Z" fill="#5B6581"/>
<path d="M16.6667 11.6666C16.2381 11.6666 15.7857 11.4761 15.4762 11.1666C15.1667 10.8571 15 10.4285 15 9.99992C15 9.57135 15.1905 9.14278 15.4762 8.80944C15.7857 8.49992 16.2143 8.33325 16.6667 8.33325C17.0952 8.33325 17.5238 8.52373 17.8333 8.80944C18.1429 9.11897 18.3333 9.54754 18.3333 9.99992C18.3333 10.4285 18.1429 10.8571 17.8333 11.1666C17.5238 11.4761 17.0952 11.6666 16.6667 11.6666Z" fill="#5B6581"/>
</svg>
