<svg width="18" height="20" viewBox="0 0 18 20" fill="none" xmlns="http://www.w3.org/2000/svg">
<path d="M3.66581 4.06722L3.48345 4.79471L3.66581 4.06722ZM6.47794 2.44363L5.75673 2.23781L6.47794 2.44363ZM1.42122 7.95496L1.96007 7.43329L1.42122 7.95496ZM1.42122 11.2021L0.882367 10.6805H0.882367L1.42122 11.2021ZM3.66581 15.0899L3.84816 15.8174L3.66581 15.0899ZM6.47794 16.7135L5.75674 16.9193L6.47794 16.7135ZM10.9671 16.7135L11.6883 16.9193L10.9671 16.7135ZM13.7793 15.0899L13.9616 14.3624L13.7793 15.0899ZM16.0238 11.2021L15.485 11.7238V11.7238L16.0238 11.2021ZM16.0238 7.95496L15.485 7.43329V7.43329L16.0238 7.95496ZM13.7793 4.06722L13.5969 3.33972L13.7793 4.06722ZM10.9671 2.44363L11.6883 2.23781L10.9671 2.44363ZM3.48345 4.79471C5.09798 5.19941 6.74236 4.25002 7.19915 2.64945L5.75673 2.23781C5.52211 3.05994 4.67747 3.5476 3.84816 3.33972L3.48345 4.79471ZM1.96007 7.43329C0.851485 6.2882 1.93749 4.40719 3.48345 4.79471L3.84816 3.33972C0.838403 2.58529 -1.27587 6.24732 0.882368 8.47663L1.96007 7.43329ZM1.96007 11.7238C3.11781 10.5279 3.11781 8.62916 1.96007 7.43329L0.882368 8.47663C1.47704 9.09089 1.47704 10.0662 0.882367 10.6805L1.96007 11.7238ZM3.48345 14.3624C1.93749 14.7499 0.851485 12.8689 1.96007 11.7238L0.882367 10.6805C-1.27587 12.9098 0.838404 16.5718 3.84816 15.8174L3.48345 14.3624ZM7.19915 16.5076C6.74236 14.9071 5.09798 13.9577 3.48345 14.3624L3.84816 15.8174C4.67747 15.6095 5.52211 16.0971 5.75674 16.9193L7.19915 16.5076ZM10.2459 16.5076C9.80853 18.0402 7.63653 18.0402 7.19915 16.5076L5.75674 16.9193C6.60826 19.903 10.8368 19.903 11.6883 16.9193L10.2459 16.5076ZM13.9616 14.3624C12.3471 13.9577 10.7027 14.9071 10.2459 16.5076L11.6883 16.9193C11.923 16.0971 12.7676 15.6095 13.5969 15.8174L13.9616 14.3624ZM15.485 11.7238C16.5936 12.8689 15.5076 14.7499 13.9616 14.3624L13.5969 15.8174C16.6067 16.5718 18.7209 12.9098 16.5627 10.6805L15.485 11.7238ZM15.485 7.43329C14.3273 8.62916 14.3273 10.5279 15.485 11.7238L16.5627 10.6805C15.968 10.0662 15.968 9.09089 16.5627 8.47663L15.485 7.43329ZM13.9616 4.79471C15.5076 4.40719 16.5936 6.2882 15.485 7.43329L16.5627 8.47663C18.7209 6.24732 16.6067 2.58529 13.5969 3.33972L13.9616 4.79471ZM10.2459 2.64945C10.7027 4.25002 12.3471 5.19941 13.9616 4.79471L13.5969 3.33972C12.7676 3.5476 11.923 3.05994 11.6883 2.23781L10.2459 2.64945ZM11.6883 2.23781C10.8368 -0.745937 6.60826 -0.745936 5.75673 2.23781L7.19915 2.64945C7.63653 1.11685 9.80853 1.11685 10.2459 2.64945L11.6883 2.23781ZM5.47253 9.57854C5.47253 11.3735 6.92761 12.8285 8.72253 12.8285V11.3285C7.75603 11.3285 6.97253 10.545 6.97253 9.57854H5.47253ZM8.72253 12.8285C10.5175 12.8285 11.9725 11.3735 11.9725 9.57854H10.4725C10.4725 10.545 9.68903 11.3285 8.72253 11.3285V12.8285ZM11.9725 9.57854C11.9725 7.78362 10.5175 6.32854 8.72253 6.32854V7.82854C9.68903 7.82854 10.4725 8.61205 10.4725 9.57854H11.9725ZM8.72253 6.32854C6.92761 6.32854 5.47253 7.78362 5.47253 9.57854H6.97253C6.97253 8.61205 7.75603 7.82854 8.72253 7.82854V6.32854Z" fill="#5B6581"/>
</svg>
