<svg width="17" height="19" viewBox="0 0 17 19" fill="none" xmlns="http://www.w3.org/2000/svg">
<path d="M2.46756 16.6209L2.9084 16.0141L2.46756 16.6209ZM1.54576 15.6991L2.15253 15.2583L1.54576 15.6991ZM14.9542 15.6991L14.3475 15.2583L14.9542 15.6991ZM14.0324 16.6209L14.4733 17.2277L14.0324 16.6209ZM14.0324 3.21243L14.4733 2.60567L14.0324 3.21243ZM14.9542 4.13423L14.3475 4.57507V4.57507L14.9542 4.13423ZM2.46756 3.21243L2.9084 3.81919V3.81919L2.46756 3.21243ZM1.54576 4.13423L2.15253 4.57507V4.57507L1.54576 4.13423ZM14.2649 12.468L14.1475 11.7272V11.7272L14.2649 12.468ZM10.8013 15.9315L10.0605 15.8142V15.8142L10.8013 15.9315ZM5.75 10C5.33579 10 5 10.3358 5 10.75C5 11.1642 5.33579 11.5 5.75 11.5V10ZM10.75 11.5C11.1642 11.5 11.5 11.1642 11.5 10.75C11.5 10.3358 11.1642 10 10.75 10V11.5ZM10 3.25C10 3.66421 10.3358 4 10.75 4C11.1642 4 11.5 3.66421 11.5 3.25H10ZM11.5 0.75C11.5 0.335786 11.1642 0 10.75 0C10.3358 0 10 0.335786 10 0.75H11.5ZM5 3.25C5 3.66421 5.33579 4 5.75 4C6.16421 4 6.5 3.66421 6.5 3.25H5ZM6.5 0.75C6.5 0.335786 6.16421 0 5.75 0C5.33579 0 5 0.335786 5 0.75H6.5ZM15.7259 12.4167L16.4755 12.4423L15.7259 12.4167ZM0.774107 7.41667L0.0245468 7.39099V7.39099L0.774107 7.41667ZM15.7259 7.41667L16.4755 7.39099L15.7259 7.41667ZM8.25 16.6667C6.67091 16.6667 5.54683 16.6656 4.6785 16.5716C3.82421 16.479 3.30688 16.3037 2.9084 16.0141L2.02672 17.2277C2.72352 17.7339 3.53502 17.9564 4.51693 18.0628C5.48481 18.1677 6.70432 18.1667 8.25 18.1667V16.6667ZM0 9.91667C0 11.4623 -0.00102943 12.6819 0.103834 13.6497C0.210218 14.6317 0.432748 15.4431 0.939 16.1399L2.15253 15.2583C1.86301 14.8598 1.68766 14.3425 1.59511 13.4882C1.50103 12.6198 1.5 11.4958 1.5 9.91667H0ZM2.9084 16.0141C2.61834 15.8034 2.36326 15.5483 2.15253 15.2583L0.939 16.1399C1.24226 16.5573 1.60932 16.9244 2.02672 17.2277L2.9084 16.0141ZM14.3475 15.2583C14.1367 15.5483 13.8817 15.8034 13.5916 16.0141L14.4733 17.2277C14.8907 16.9244 15.2577 16.5573 15.561 16.1399L14.3475 15.2583ZM13.5916 3.81919C13.8817 4.02993 14.1367 4.28501 14.3475 4.57507L15.561 3.69339C15.2577 3.27599 14.8907 2.90892 14.4733 2.60567L13.5916 3.81919ZM2.02672 2.60567C1.60932 2.90892 1.24226 3.27599 0.939 3.69339L2.15253 4.57507C2.36326 4.28501 2.61834 4.02993 2.9084 3.81919L2.02672 2.60567ZM14.1475 11.7272C12.0437 12.0604 10.3937 13.7104 10.0605 15.8142L11.5421 16.0488C11.7736 14.5869 12.9202 13.4403 14.3822 13.2087L14.1475 11.7272ZM5.75 11.5H10.75V10H5.75V11.5ZM15.7259 11.6667C14.9952 11.6667 14.5408 11.6649 14.1475 11.7272L14.3822 13.2087C14.6299 13.1695 14.9403 13.1667 15.7259 13.1667L15.7259 11.6667ZM15 9.91667C15 10.8949 14.9999 11.7029 14.9763 12.391L16.4755 12.4423C16.5001 11.7231 16.5 10.8866 16.5 9.91667H15ZM14.9763 12.391C14.9234 13.9352 14.7505 14.7035 14.3475 15.2583L15.561 16.1399C16.2533 15.1871 16.4219 14.0051 16.4755 12.4423L14.9763 12.391ZM11.5 17.3926C11.5 16.6069 11.5028 16.2966 11.5421 16.0488L10.0605 15.8142C9.99825 16.2074 10 16.6619 10 17.3926L11.5 17.3926ZM8.25 18.1667C9.21996 18.1667 10.0565 18.1668 10.7757 18.1421L10.7243 16.643C10.0363 16.6666 9.22825 16.6667 8.25 16.6667V18.1667ZM10.7757 18.1421C12.3384 18.0886 13.5204 17.92 14.4733 17.2277L13.5916 16.0141C13.0368 16.4172 12.2685 16.5901 10.7243 16.643L10.7757 18.1421ZM1.5 9.91667C1.5 8.93841 1.50009 8.13039 1.52367 7.44235L0.0245468 7.39099C-9.39369e-05 8.11019 0 8.94671 0 9.91667H1.5ZM1.52367 7.44235C1.57657 5.89812 1.74945 5.12985 2.15253 4.57507L0.939 3.69339C0.246682 4.64628 0.0780886 5.82824 0.0245468 7.39099L1.52367 7.44235ZM0.774107 8.16667H15.7259V6.66667H0.774107V8.16667ZM16.5 9.91667C16.5 8.94671 16.5001 8.11019 16.4755 7.39099L14.9763 7.44235C14.9999 8.13039 15 8.93841 15 9.91667H16.5ZM16.4755 7.39099C16.4219 5.82824 16.2533 4.64628 15.561 3.69339L14.3475 4.57507C14.7505 5.12985 14.9234 5.89812 14.9763 7.44235L16.4755 7.39099ZM11.5 3.25V2.44077H10V3.25H11.5ZM11.5 2.44077V0.75H10V2.44077H11.5ZM8.25 3.16667C9.22826 3.16667 10.0363 3.16676 10.7243 3.19033L10.7757 1.69121C10.0565 1.66657 9.21995 1.66667 8.25 1.66667V3.16667ZM10.7243 3.19033C12.2685 3.24324 13.0368 3.41612 13.5916 3.81919L14.4733 2.60567C13.5204 1.91335 12.3384 1.74476 10.7757 1.69121L10.7243 3.19033ZM6.5 3.25V2.44077H5V3.25H6.5ZM6.5 2.44077V0.75H5V2.44077H6.5ZM8.25 1.66667C7.28005 1.66667 6.44352 1.66657 5.72432 1.69121L5.77568 3.19033C6.46372 3.16676 7.27174 3.16667 8.25 3.16667V1.66667ZM5.72432 1.69121C4.16157 1.74476 2.97962 1.91335 2.02672 2.60567L2.9084 3.81919C3.46318 3.41612 4.23145 3.24324 5.77568 3.19033L5.72432 1.69121Z" fill="#5B6581"/>
</svg>
