<svg width="14" height="13" viewBox="0 0 14 13" fill="none" xmlns="http://www.w3.org/2000/svg">
<path d="M6.87632 4.03193L4.71327 0.214601C4.78508 0.141479 4.86771 0.0935162 4.95035 0.0612793C4.31247 0.271212 4.01979 0.987501 4.01979 0.987501L0.0682234 7.95933C0.0126219 8.17791 -0.00282425 8.37526 0.00412594 8.54903H4.3171L6.87632 4.03193Z" fill="#34A853"/>
<path d="M6.87619 4.03193L9.43541 8.54903H13.7484C13.7553 8.37526 13.7399 8.17791 13.6843 7.95933L9.73272 0.987501C9.73272 0.987501 9.43927 0.271212 8.80217 0.0612793C8.88403 0.0935162 8.96743 0.141479 9.03925 0.214601L6.87619 4.03193Z" fill="#FBBC05"/>
<path d="M6.87622 4.0319L9.03928 0.214572C8.96746 0.141449 8.88405 0.0934867 8.8022 0.0612498C8.70798 0.0305854 8.60682 0.0101425 8.49716 0.00463867H8.38287H5.36957H5.25528C5.14639 0.00935627 5.04446 0.0297991 4.95025 0.0612498C4.86839 0.0934867 4.78499 0.141449 4.71317 0.214572L6.87622 4.0319Z" fill="#188038"/>
<path d="M4.31782 8.54883L2.17947 12.3229C2.17947 12.3229 2.10843 12.2883 2.0119 12.2168C2.31539 12.4503 2.61038 12.4998 2.61038 12.4998H11.0085C11.4719 12.4998 11.5684 12.3229 11.5684 12.3229C11.57 12.3221 11.5707 12.3213 11.5723 12.3205L9.43547 8.54883H4.31782Z" fill="#4285F4"/>
<path d="M4.31796 8.54883H0.0049839C0.0266067 9.06147 0.249013 9.36104 0.249013 9.36104L0.411185 9.64253C0.422768 9.65904 0.429718 9.66847 0.429718 9.66847L0.782634 10.288L1.57495 11.6672C1.59812 11.723 1.62515 11.7741 1.65372 11.8228C1.66454 11.8394 1.67457 11.8574 1.68616 11.8732C1.68925 11.8779 1.69233 11.8826 1.69542 11.8873C1.7935 12.0257 1.90316 12.1326 2.01282 12.2168C2.10935 12.2891 2.18039 12.3229 2.18039 12.3229L4.31796 8.54883Z" fill="#1967D2"/>
<path d="M9.43542 8.54883H13.7484C13.7268 9.06147 13.5044 9.36104 13.5044 9.36104L13.3422 9.64253C13.3306 9.65904 13.3237 9.66847 13.3237 9.66847L12.9708 10.288L12.1784 11.6672C12.1553 11.723 12.1282 11.7741 12.0997 11.8228C12.0889 11.8394 12.0788 11.8574 12.0672 11.8732C12.0641 11.8779 12.061 11.8826 12.058 11.8873C11.9599 12.0257 11.8502 12.1326 11.7406 12.2168C11.644 12.2891 11.573 12.3229 11.573 12.3229L9.43542 8.54883Z" fill="#EA4335"/>
</svg>
