<svg width="20" height="18" viewBox="0 0 20 18" fill="none" xmlns="http://www.w3.org/2000/svg">
<path d="M5.75 16.4507L6.08333 16.1173C6.13321 16.0675 6.15815 16.0425 6.17894 16.0211C7.75028 14.4041 7.75028 11.8305 6.17894 10.2135C6.15815 10.1921 6.13321 10.1672 6.08333 10.1173L5.75 9.784M14.0833 16.4507L13.75 16.1173C13.7001 16.0675 13.6752 16.0425 13.6544 16.0211C12.0831 14.4041 12.0831 11.8305 13.6544 10.2135C13.6752 10.1921 13.7001 10.1672 13.75 10.1173L14.0833 9.784M2.00759 10.6679C2.13847 10.6349 2.27552 10.6173 2.41667 10.6173C3.33714 10.6173 4.08333 11.3635 4.08333 12.284V13.9507C4.08333 14.8711 3.33714 15.6173 2.41667 15.6173C1.49619 15.6173 0.75 14.8711 0.75 13.9507V12.284C0.75 11.5047 1.2849 10.8503 2.00759 10.6679ZM2.00759 10.6679L1.91382 10.0428C1.26531 5.71941 4.16782 1.66257 8.46906 0.880531C9.42628 0.70649 10.407 0.70649 11.3643 0.880531C15.6655 1.66257 18.568 5.71942 17.9195 10.0428L17.8257 10.6679M17.8257 10.6679C17.6949 10.6349 17.5578 10.6173 17.4167 10.6173C16.4962 10.6173 15.75 11.3635 15.75 12.284V13.9507C15.75 14.8711 16.4962 15.6173 17.4167 15.6173C18.3371 15.6173 19.0833 14.8711 19.0833 13.9507V12.284C19.0833 11.5047 18.5484 10.8503 17.8257 10.6679Z" stroke="#5B6581" stroke-width="1.5" stroke-linecap="round"/>
</svg>
