<svg width="16" height="14" viewBox="0 0 16 14" fill="none" xmlns="http://www.w3.org/2000/svg">
<path d="M4 3.25C4 4.2165 4.7835 5 5.75 5V6.5C3.95507 6.5 2.5 5.04493 2.5 3.25H4ZM5.75 5C6.7165 5 7.5 4.2165 7.5 3.25H9C9 5.04493 7.54493 6.5 5.75 6.5V5ZM7.5 3.25C7.5 2.2835 6.7165 1.5 5.75 1.5V0C7.54493 0 9 1.45507 9 3.25H7.5ZM5.75 1.5C4.7835 1.5 4 2.2835 4 3.25H2.5C2.5 1.45507 3.95507 0 5.75 0V1.5ZM8.25 9H3.25V7.5H8.25V9ZM3.25 12.5H8.25V14H3.25V12.5ZM8.25 12.5C9.2165 12.5 10 11.7165 10 10.75H11.5C11.5 12.5449 10.0449 14 8.25 14V12.5ZM1.5 10.75C1.5 11.7165 2.2835 12.5 3.25 12.5V14C1.45508 14 0 12.5449 0 10.75H1.5ZM3.25 9C2.2835 9 1.5 9.7835 1.5 10.75H0C0 8.95508 1.45508 7.5 3.25 7.5V9ZM8.25 7.5C10.0449 7.5 11.5 8.95508 11.5 10.75H10C10 9.7835 9.2165 9 8.25 9V7.5Z" fill="#5B6581"/>
<path d="M9.28988 5.44888C9.42132 5.23773 9.66795 5.125 9.91667 5.125C10.9522 5.125 11.7917 4.28553 11.7917 3.25C11.7917 2.21447 10.9522 1.375 9.91667 1.375C9.66795 1.375 9.42132 1.26227 9.28988 1.05112C9.28407 1.04178 9.27822 1.03247 9.27234 1.02318C9.0535 0.677756 9.16438 0.188667 9.57083 0.143919C9.68439 0.131417 9.79978 0.125 9.91667 0.125C11.6426 0.125 13.0417 1.52411 13.0417 3.25C13.0417 4.97589 11.6426 6.375 9.91667 6.375C9.79978 6.375 9.68439 6.36858 9.57083 6.35608C9.16438 6.31133 9.0535 5.82224 9.27234 5.47682C9.27822 5.46753 9.28407 5.45822 9.28988 5.44888Z" fill="#A1AEBC"/>
<path d="M11.8264 12.0557C11.921 11.8979 12.088 11.7917 12.272 11.7917H12.4167C13.4522 11.7917 14.2917 10.9522 14.2917 9.91667C14.2917 8.88113 13.4522 8.04167 12.4167 8.04167H12.272C12.088 8.04167 11.921 7.93544 11.8264 7.77761C11.5955 7.39235 11.8461 6.79167 12.2953 6.79167H12.4167C14.1426 6.79167 15.5417 8.19078 15.5417 9.91667C15.5417 11.6426 14.1426 13.0417 12.4167 13.0417H12.2953C11.8461 13.0417 11.5955 12.441 11.8264 12.0557Z" fill="#A1AEBC"/>
</svg>
