<svg width="17" height="17" viewBox="0 0 17 17" fill="none" xmlns="http://www.w3.org/2000/svg">
<path fill-rule="evenodd" clip-rule="evenodd" d="M8.33333 16.6667C12.9357 16.6667 16.6667 12.9357 16.6667 8.33333C16.6667 3.73096 12.9357 0 8.33333 0C3.73096 0 0 3.73096 0 8.33333C0 12.9357 3.73096 16.6667 8.33333 16.6667ZM12.9656 6.25023C13.1959 5.99306 13.1741 5.59793 12.9169 5.36769C12.6597 5.13744 12.2646 5.15927 12.0344 5.41644L9.22671 8.55242C8.6578 9.18787 8.27466 9.61356 7.9471 9.88888C7.63505 10.1512 7.45177 10.2083 7.29167 10.2083C7.13156 10.2083 6.94828 10.1512 6.63623 9.88888C6.30867 9.61356 5.92554 9.18787 5.35662 8.55242L4.63231 7.74341C4.40207 7.48624 4.00694 7.46441 3.74977 7.69466C3.49261 7.9249 3.47078 8.32003 3.70102 8.57719L4.45627 9.42077C4.98615 10.0127 5.42812 10.5063 5.83196 10.8458C6.25916 11.2048 6.71994 11.4583 7.29167 11.4583C7.86339 11.4583 8.32417 11.2048 8.75137 10.8458C9.15521 10.5063 9.59718 10.0127 10.1271 9.42078L12.9656 6.25023Z" fill="#081526"/>
</svg>
