<svg width="16" height="18" viewBox="0 0 16 18" fill="none" xmlns="http://www.w3.org/2000/svg">
<path d="M8.58814 5.58849C8.35802 5.98707 8.49459 6.49673 8.89316 6.72685C9.29174 6.95697 9.8014 6.8204 10.0315 6.42183C10.2616 6.02325 10.1251 5.51359 9.7265 5.28347C9.32792 5.05335 8.81826 5.18992 8.58814 5.58849Z" fill="#081526"/>
<path fill-rule="evenodd" clip-rule="evenodd" d="M7.13488 0.7145C8.57189 0.261139 9.44718 -0.0150052 10.2346 0.000630643C11.8784 0.0332708 13.3907 0.906377 14.2408 2.31361C14.6481 2.98772 14.8466 3.8838 15.1724 5.35495L15.2149 5.54665C15.3426 6.12252 15.4212 6.47684 15.4461 6.83237C15.4975 7.56731 15.3788 8.30422 15.0991 8.98582C14.9638 9.31554 14.778 9.62725 14.4759 10.1339L12.3365 13.7221C11.6556 14.8645 11.2401 15.5616 10.7128 16.0414C9.5477 17.1014 7.93604 17.5212 6.40188 17.1641C5.70755 17.0025 5.00477 16.5966 3.85312 15.9315L3.63503 15.8056C2.48319 15.1408 1.78027 14.7351 1.29316 14.2146C0.21685 13.0645 -0.225475 11.4589 0.110017 9.91988C0.261856 9.22334 0.657837 8.51494 1.30674 7.35406L3.34455 3.70719C3.63223 3.19227 3.80925 2.87542 4.02714 2.59341C4.47759 2.01041 5.05641 1.53914 5.71862 1.21621C6.03895 1.06 6.38508 0.950888 6.94764 0.773554L7.13488 0.7145ZM7.50561 4.96349C6.93032 5.95994 7.27172 7.23408 8.26816 7.80938C9.26461 8.38467 10.5388 8.04327 11.1141 7.04683C11.6893 6.05038 11.3479 4.77624 10.3515 4.20094C9.35506 3.62564 8.08091 3.96705 7.50561 4.96349Z" fill="#081526"/>
</svg>
