<svg width="17" height="10" viewBox="0 0 17 10" fill="none" xmlns="http://www.w3.org/2000/svg">
<path d="M0.625 4.05816C0.279822 4.05816 -5.96046e-08 4.33798 0 4.68316C5.96046e-08 5.02834 0.279822 5.30816 0.625 5.30816L0.625 4.05816ZM9.79167 5.30816C10.1368 5.30816 10.4167 5.02834 10.4167 4.68316C10.4167 4.33798 10.1368 4.05816 9.79167 4.05816V5.30816ZM9.79167 2.29596H9.16667V2.29596H9.79167ZM12.475 0.975281L12.8562 0.480027V0.480027L12.475 0.975281ZM12.475 8.39104L12.8562 8.88629V8.88629L12.475 8.39104ZM9.79167 7.07036H10.4167V7.07036H9.79167ZM15.5761 6.00384L15.1948 5.50858V5.50858L15.5761 6.00384ZM15.5761 3.36248L15.1948 3.85774V3.85774L15.5761 3.36248ZM0.625 4.68316L0.625 5.30816L9.79167 5.30816V4.68316V4.05816L0.625 4.05816L0.625 4.68316ZM15.5761 6.00384L15.1948 5.50858L12.0937 7.89579L12.475 8.39104L12.8562 8.88629L15.9573 6.49909L15.5761 6.00384ZM9.79167 7.07036H10.4167V2.29596H9.79167H9.16667V7.07036H9.79167ZM12.475 0.975281L12.0937 1.47053L15.1948 3.85774L15.5761 3.36248L15.9573 2.86723L12.8562 0.480027L12.475 0.975281ZM9.79167 2.29596H10.4167C10.4167 1.43154 11.4088 0.943245 12.0937 1.47053L12.475 0.975281L12.8562 0.480027C11.3493 -0.680007 9.16667 0.394241 9.16667 2.29596H9.79167ZM12.475 8.39104L12.0937 7.89579C11.4088 8.42307 10.4167 7.93478 10.4167 7.07036H9.79167H9.16667C9.16667 8.97208 11.3493 10.0463 12.8562 8.88629L12.475 8.39104ZM15.5761 6.00384L15.9573 6.49909C17.149 5.58173 17.149 3.78459 15.9573 2.86723L15.5761 3.36248L15.1948 3.85774C15.7365 4.27472 15.7365 5.0916 15.1948 5.50858L15.5761 6.00384Z" fill="#A1AEBC"/>
</svg>
