<svg width="16" height="17" viewBox="0 0 16 17" fill="none" xmlns="http://www.w3.org/2000/svg">
<path fill-rule="evenodd" clip-rule="evenodd" d="M6.38404 1.40031e-05H6.66792C8.12959 -0.000211898 9.01786 -0.000349184 9.72887 0.226214C11.4776 0.783461 12.7544 2.29067 13.0166 4.10725C13.0587 4.39896 13.0614 4.71213 13.0344 5.07313C14.4358 5.38171 15.4843 6.63091 15.4843 8.12503C15.4843 9.85092 14.0852 11.25 12.3593 11.25C12.2577 11.25 12.1571 11.2452 12.0578 11.2356L11.9857 11.6684C11.895 12.213 11.8395 12.5458 11.7518 12.8376C11.207 14.6501 9.64645 15.9721 7.76906 16.2115C7.46679 16.2501 7.1295 16.2501 6.57742 16.25H6.47464C5.92255 16.2501 5.58517 16.2501 5.2829 16.2115C3.40551 15.9721 1.84493 14.6501 1.30015 12.8376C1.21243 12.5458 1.15699 12.2131 1.06625 11.6684L0.315463 7.16373C0.0749437 5.72199 -0.0712233 4.84582 0.0353689 4.10725C0.29754 2.29067 1.57434 0.783461 3.3231 0.226214C4.0341 -0.000349184 4.92238 -0.000211898 6.38404 1.40031e-05ZM12.2642 9.99767C12.2957 9.99924 12.3274 10 12.3593 10C13.3948 10 14.2343 9.16056 14.2343 8.12503C14.2343 7.26827 13.6597 6.54572 12.8748 6.32178C12.8339 6.5797 12.7874 6.85879 12.7366 7.16308L12.2642 9.99767ZM3.80815 6.34983C3.74821 6.00989 3.42405 5.78291 3.08412 5.84285C2.74418 5.90279 2.5172 6.22696 2.57714 6.56689L3.44538 11.4909C3.50532 11.8309 3.82949 12.0578 4.16942 11.9979C4.50935 11.938 4.73633 11.6138 4.67639 11.2739L3.80815 6.34983Z" fill="#081526"/>
</svg>
