<svg width="15" height="18" viewBox="0 0 15 18" fill="none" xmlns="http://www.w3.org/2000/svg">
<path d="M4.23617 14.0833L4.5695 14.6548C6.0695 17.2262 9.0695 17.2262 10.5695 14.6548L10.9028 14.0833M1.05519 12.0413L1.14131 12.2189C1.69446 13.3592 2.85048 14.0833 4.1179 14.0833H10.9686C12.0547 14.0833 13.0655 13.5285 13.6486 12.6122C14.4718 11.3188 14.2538 9.62206 13.1304 8.57877L13.0938 8.54481C12.3311 7.83647 11.9555 6.80453 12.0847 5.77165L12.1385 5.34088C12.4432 2.90316 10.5424 0.75 8.08575 0.75H6.66665C4.21296 0.75 2.31451 2.90053 2.61885 5.33528L2.68498 5.86432C2.80676 6.83859 2.45088 7.81175 1.72931 8.47761C0.743712 9.3871 0.469884 10.8347 1.05519 12.0413Z" stroke="#5B6581" stroke-width="1.5" stroke-linecap="round"/>
</svg>
