<svg width="18" height="18" viewBox="0 0 18 18" fill="none" xmlns="http://www.w3.org/2000/svg">
<path d="M2.46756 15.9303L2.9084 15.3236L2.9084 15.3236L2.46756 15.9303ZM1.54576 15.0085L0.939 15.4494H0.939L1.54576 15.0085ZM14.0324 15.9303L13.5916 15.3236V15.3236L14.0324 15.9303ZM14.9542 15.0085L14.3475 14.5677V14.5677L14.9542 15.0085ZM1.54576 3.44365L0.939 3.00282H0.939L1.54576 3.44365ZM2.46756 2.52185L2.9084 3.12862V3.12862L2.46756 2.52185ZM6.59232 2.48204C7.00651 2.47708 7.33824 2.13729 7.33328 1.72311C7.32831 1.30892 6.98853 0.977187 6.57434 0.982152L6.59232 2.48204ZM16.4939 10.9017C16.4989 10.4876 16.1672 10.1478 15.753 10.1428C15.3388 10.1378 14.999 10.4696 14.9941 10.8838L16.4939 10.9017ZM8.91463 12.5631L8.83181 11.8177L8.91463 12.5631ZM5.48148 12.3152L4.95115 12.8456H4.95115L5.48148 12.3152ZM5.23358 8.88209L5.97899 8.96491L5.23358 8.88209ZM6.1895 6.89317L5.65917 6.36284V6.36284L6.1895 6.89317ZM5.45244 7.7631L4.77647 7.43821V7.43821L5.45244 7.7631ZM10.9035 11.6072L11.4339 12.1375V12.1375L10.9035 11.6072ZM10.0336 12.3443L10.3585 13.0203V13.0203L10.0336 12.3443ZM8.25 15.9761C6.67091 15.9761 5.54683 15.9751 4.6785 15.881C3.82421 15.7884 3.30688 15.6131 2.9084 15.3236L2.02672 16.5371C2.72352 17.0433 3.53502 17.2659 4.51693 17.3723C5.48481 17.4771 6.70432 17.4761 8.25 17.4761V15.9761ZM0 9.22609C0 10.7718 -0.00102943 11.9913 0.103834 12.9592C0.210218 13.9411 0.432748 14.7526 0.939 15.4494L2.15253 14.5677C1.86301 14.1692 1.68766 13.6519 1.59511 12.7976C1.50103 11.9293 1.5 10.8052 1.5 9.22609H0ZM2.9084 15.3236C2.61834 15.1128 2.36326 14.8577 2.15253 14.5677L0.939 15.4494C1.24226 15.8668 1.60932 16.2338 2.02672 16.5371L2.9084 15.3236ZM8.25 17.4761C9.79568 17.4761 11.0152 17.4771 11.9831 17.3723C12.965 17.2659 13.7765 17.0433 14.4733 16.5371L13.5916 15.3236C13.1931 15.6131 12.6758 15.7884 11.8215 15.881C10.9532 15.9751 9.82909 15.9761 8.25 15.9761V17.4761ZM14.3475 14.5677C14.1367 14.8577 13.8817 15.1128 13.5916 15.3236L14.4733 16.5371C14.8907 16.2338 15.2577 15.8668 15.561 15.4494L14.3475 14.5677ZM1.5 9.22609C1.5 7.647 1.50103 6.52292 1.59511 5.65459C1.68766 4.8003 1.86301 4.28297 2.15253 3.88449L0.939 3.00282C0.432748 3.69961 0.210218 4.51111 0.103834 5.49303C-0.00102943 6.46091 0 7.68041 0 9.22609H1.5ZM2.02672 1.91509C1.60932 2.21835 1.24226 2.58542 0.939 3.00282L2.15253 3.88449C2.36326 3.59444 2.61834 3.33936 2.9084 3.12862L2.02672 1.91509ZM6.57434 0.982152C4.55844 1.00632 3.12934 1.114 2.02672 1.91509L2.9084 3.12862C3.56667 2.65036 4.50213 2.5071 6.59232 2.48204L6.57434 0.982152ZM14.9941 10.8838C14.969 12.974 14.8257 13.9094 14.3475 14.5677L15.561 15.4494C16.3621 14.3468 16.4698 12.9177 16.4939 10.9017L14.9941 10.8838ZM14.8497 6.60038L10.3732 11.0769L11.4339 12.1375L15.9104 7.66104L14.8497 6.60038ZM6.71983 7.4235L11.1963 2.947L10.1357 1.88634L5.65917 6.36284L6.71983 7.4235ZM8.83181 11.8177C7.85294 11.9265 7.19996 11.9972 6.71798 11.9816C6.25613 11.9667 6.10148 11.8746 6.01181 11.7849L4.95115 12.8456C5.4279 13.3223 6.03425 13.4603 6.66957 13.4808C7.28478 13.5007 8.06517 13.4121 8.99746 13.3085L8.83181 11.8177ZM4.48817 8.79926C4.38458 9.73155 4.29601 10.5119 4.31588 11.1271C4.3364 11.7625 4.4744 12.3688 4.95115 12.8456L6.01181 11.7849C5.92214 11.6952 5.83001 11.5406 5.8151 11.0787C5.79953 10.5968 5.87023 9.94378 5.97899 8.96491L4.48817 8.79926ZM5.65917 6.36284C5.28593 6.73608 4.96753 7.04067 4.77647 7.43821L6.12842 8.08799C6.18327 7.97387 6.27427 7.86906 6.71983 7.4235L5.65917 6.36284ZM5.97899 8.96491C6.04858 8.33864 6.07358 8.2021 6.12842 8.08799L4.77647 7.43821C4.5854 7.83574 4.54646 8.27465 4.48817 8.79926L5.97899 8.96491ZM10.3732 11.0769C9.92766 11.5224 9.82284 11.6135 9.70873 11.6683L10.3585 13.0203C10.756 12.8292 11.0606 12.5108 11.4339 12.1375L10.3732 11.0769ZM8.99746 13.3085C9.52207 13.2503 9.96097 13.2113 10.3585 13.0203L9.70873 11.6683C9.59461 11.7231 9.45808 11.7481 8.83181 11.8177L8.99746 13.3085ZM14.8497 2.947C15.4203 3.51754 15.7937 3.89323 16.0338 4.2079C16.2607 4.50525 16.2967 4.65843 16.2967 4.77369H17.7967C17.7967 4.19859 17.555 3.72881 17.2263 3.29803C16.9108 2.88455 16.4509 2.4269 15.9104 1.88634L14.8497 2.947ZM15.9104 7.66104C16.4509 7.12048 16.9108 6.66283 17.2263 6.24935C17.555 5.81857 17.7967 5.34878 17.7967 4.77369H16.2967C16.2967 4.88895 16.2607 5.04212 16.0338 5.33948C15.7937 5.65415 15.4203 6.02983 14.8497 6.60038L15.9104 7.66104ZM15.9104 1.88634C15.3698 1.34577 14.9122 0.885874 14.4987 0.5704C14.0679 0.241721 13.5981 0 13.023 0V1.5C13.1383 1.5 13.2915 1.53606 13.5888 1.76293C13.9035 2.00301 14.2792 2.37645 14.8497 2.947L15.9104 1.88634ZM11.1963 2.947C11.7669 2.37645 12.1426 2.00301 12.4572 1.76293C12.7546 1.53606 12.9078 1.5 13.023 1.5V0C12.4479 0 11.9782 0.241721 11.5474 0.5704C11.1339 0.885874 10.6762 1.34577 10.1357 1.88634L11.1963 2.947ZM15.9104 6.60038L11.1963 1.88634L10.1357 2.947L14.8497 7.66104L15.9104 6.60038Z" fill="#5B6581"/>
</svg>
