<svg width="17" height="17" viewBox="0 0 17 17" fill="none" xmlns="http://www.w3.org/2000/svg">
<path fill-rule="evenodd" clip-rule="evenodd" d="M8.16271 1.07598e-07C9.69316 -6.587e-06 10.8928 -1.1834e-05 11.8446 0.103107C12.8159 0.208339 13.6029 0.426937 14.2748 0.915127C14.6816 1.21067 15.0393 1.56841 15.3349 1.9752C15.8231 2.64713 16.0417 3.43412 16.1469 4.4054C16.25 5.35716 16.25 6.55687 16.25 8.08727V8.16279C16.25 9.6932 16.25 10.8928 16.1469 11.8446C16.0417 12.8159 15.8231 13.6029 15.3349 14.2748C15.0393 14.6816 14.6816 15.0393 14.2748 15.3349C13.6029 15.8231 12.8159 16.0417 11.8446 16.1469C10.8928 16.25 9.69313 16.25 8.16273 16.25H8.08721C6.5568 16.25 5.35716 16.25 4.4054 16.1469C3.43412 16.0417 2.64713 15.8231 1.9752 15.3349C1.56841 15.0393 1.21067 14.6816 0.915127 14.2748C0.426937 13.6029 0.208339 12.8159 0.103107 11.8446C-1.1834e-05 10.8928 -6.587e-06 9.69316 1.07598e-07 8.16271V8.08729C-6.587e-06 6.55685 -1.1834e-05 5.35717 0.103107 4.4054C0.208339 3.43412 0.426937 2.64713 0.915127 1.9752C1.21068 1.56841 1.56841 1.21068 1.9752 0.915127C2.64713 0.426937 3.43412 0.208339 4.4054 0.103107C5.35718 -1.1834e-05 6.55684 -6.587e-06 8.08728 1.07598e-07H8.16271ZM8.75 3.95833C8.75 3.61316 8.47018 3.33333 8.125 3.33333C7.77982 3.33333 7.5 3.61316 7.5 3.95833V12.2917C7.5 12.6368 7.77982 12.9167 8.125 12.9167C8.47018 12.9167 8.75 12.6368 8.75 12.2917V3.95833ZM12.0833 7.29167C12.0833 6.94649 11.8035 6.66667 11.4583 6.66667C11.1132 6.66667 10.8333 6.94649 10.8333 7.29167V12.2917C10.8333 12.6368 11.1132 12.9167 11.4583 12.9167C11.8035 12.9167 12.0833 12.6368 12.0833 12.2917V7.29167ZM5.41667 8.95833C5.41667 8.61316 5.13684 8.33333 4.79167 8.33333C4.44649 8.33333 4.16667 8.61316 4.16667 8.95833V12.2917C4.16667 12.6368 4.44649 12.9167 4.79167 12.9167C5.13684 12.9167 5.41667 12.6368 5.41667 12.2917V8.95833Z" fill="#28C5EE"/>
</svg>
