<svg width="11" height="9" viewBox="0 0 11 9" fill="none" xmlns="http://www.w3.org/2000/svg">
<path d="M2.14645 5.97983C1.95118 6.17509 1.95118 6.49167 2.14645 6.68693C2.34171 6.88219 2.65829 6.88219 2.85355 6.68693L4.53388 5.0066L5.18373 5.53731C5.38793 5.70407 5.68653 5.68363 5.86609 5.4906L7.50142 3.73262L8.13523 4.40868C8.3241 4.61014 8.64051 4.62035 8.84197 4.43148C9.04343 4.24262 9.05363 3.9262 8.86477 3.72474L7.86477 2.65808C7.77001 2.557 7.63757 2.49978 7.49903 2.50005C7.36049 2.50032 7.22827 2.55806 7.13391 2.65949L5.45319 4.46627L4.81627 3.94611C4.61744 3.78374 4.32796 3.79831 4.14645 3.97983L2.14645 5.97983Z" fill="#47AF2A"/>
<path fill-rule="evenodd" clip-rule="evenodd" d="M2 0C0.89543 0 0 0.895432 0 2V7C0 8.10457 0.89543 9 2 9H9C10.1046 9 11 8.10457 11 7V2C11 0.895431 10.1046 0 9 0H2ZM1 2C1 1.44772 1.44772 1 2 1H9C9.55228 1 10 1.44772 10 2V7C10 7.55228 9.55229 8 9 8H2C1.44772 8 1 7.55228 1 7V2Z" fill="#47AF2A"/>
</svg>
