<svg width="14" height="17" viewBox="0 0 14 17" fill="none" xmlns="http://www.w3.org/2000/svg">
<path d="M12.4053 4.13577C12.6001 2.86573 12.4053 2.01904 11.7235 1.23747C10.9768 0.358216 9.61328 0 7.86015 0H2.82803C2.47091 0 2.17872 0.260521 2.11379 0.618737L0.00353997 13.9704C-0.0289254 14.231 0.165867 14.4589 0.425589 14.4589H3.54226L3.31501 15.8267C3.28254 16.0546 3.44487 16.25 3.70459 16.25H6.33428C6.65894 16.25 6.91866 16.022 6.95112 15.729L7.50304 12.2771C7.5355 11.984 7.82769 11.756 8.11988 11.756H8.50946C11.0418 11.756 13.0546 10.7139 13.639 7.71794C13.8662 6.48046 13.7688 5.40581 13.1195 4.68938C12.9247 4.46142 12.6975 4.2986 12.4053 4.13577Z" fill="#009CDE"/>
<path d="M12.4053 4.13577C12.6001 2.86573 12.4053 2.01904 11.7235 1.23747C10.9768 0.358216 9.61328 0 7.86015 0H2.82803C2.47091 0 2.17872 0.260521 2.11379 0.618737L0.00353997 13.9704C-0.0289254 14.231 0.165867 14.4589 0.425589 14.4589H3.54226L4.28897 9.63928C4.3539 9.28106 4.64608 9.02054 5.0032 9.02054H6.49661C9.41849 9.02054 11.6911 7.8482 12.3404 4.39629C12.3728 4.33116 12.3728 4.23347 12.4053 4.13577Z" fill="#012169"/>
<path d="M5.16553 4.16834C5.19799 3.94038 5.49018 3.64729 5.78237 3.64729H9.74314C10.1977 3.64729 10.6522 3.67986 11.0418 3.74499C11.3989 3.81012 12.0482 3.97295 12.3728 4.16834C12.5676 2.8983 12.3728 2.0516 11.6911 1.27004C10.9768 0.358216 9.61328 0 7.86015 0H2.82802C2.47091 0 2.17872 0.260521 2.11379 0.618737L0.00353997 13.9704C-0.0289254 14.231 0.165867 14.4589 0.425589 14.4589H3.54226L5.16553 4.16834Z" fill="#003087"/>
</svg>
