<svg width="15" height="18" viewBox="0 0 15 18" fill="none" xmlns="http://www.w3.org/2000/svg">
<path fill-rule="evenodd" clip-rule="evenodd" d="M1.87367 5.2878C1.5227 2.48002 3.71202 0 6.54165 0H7.96074C10.7934 0 12.985 2.48265 12.6337 5.2934L12.5798 5.72418C12.4756 6.5576 12.7786 7.39028 13.3941 7.96184L13.4307 7.9958C14.7751 9.24435 15.036 11.2749 14.0509 12.8228C13.4071 13.8344 12.3276 14.4779 11.1437 14.5715L10.9844 14.8447C10.1404 16.2915 8.82536 17.0833 7.4445 17.0833C6.06364 17.0833 4.74863 16.2915 3.90463 14.8447L3.74774 14.5757C2.33832 14.488 1.07577 13.6485 0.453974 12.3667L0.367849 12.1891C-0.337694 10.7346 -0.0076138 8.98962 1.18045 7.89329C1.75379 7.36422 2.03657 6.59097 1.9398 5.81684L1.87367 5.2878ZM5.22511 14.5833C5.8579 15.4481 6.67688 15.8333 7.4445 15.8333C8.21211 15.8333 9.0311 15.4481 9.66388 14.5833H5.22511Z" fill="#A1AEBC"/>
</svg>
