<svg width="20" height="14" viewBox="0 0 20 14" fill="none" xmlns="http://www.w3.org/2000/svg">
<path d="M11.5417 3.25C11.5417 4.2165 10.7582 5 9.79167 5V6.5C11.5866 6.5 13.0417 5.04493 13.0417 3.25H11.5417ZM9.79167 5C8.82517 5 8.04167 4.2165 8.04167 3.25H6.54167C6.54167 5.04493 7.99674 6.5 9.79167 6.5V5ZM8.04167 3.25C8.04167 2.2835 8.82517 1.5 9.79167 1.5V0C7.99674 0 6.54167 1.45507 6.54167 3.25H8.04167ZM9.79167 1.5C10.7582 1.5 11.5417 2.2835 11.5417 3.25H13.0417C13.0417 1.45507 11.5866 0 9.79167 0V1.5ZM7.29167 9H12.2917V7.5H7.29167V9ZM12.2917 12.5H7.29167V14H12.2917V12.5ZM7.29167 12.5C6.32517 12.5 5.54167 11.7165 5.54167 10.75H4.04167C4.04167 12.5449 5.49674 14 7.29167 14V12.5ZM14.0417 10.75C14.0417 11.7165 13.2582 12.5 12.2917 12.5V14C14.0866 14 15.5417 12.5449 15.5417 10.75H14.0417ZM12.2917 9C13.2582 9 14.0417 9.7835 14.0417 10.75H15.5417C15.5417 8.95508 14.0866 7.5 12.2917 7.5V9ZM7.29167 7.5C5.49674 7.5 4.04167 8.95508 4.04167 10.75H5.54167C5.54167 9.7835 6.32517 9 7.29167 9V7.5Z" fill="#5B6581"/>
<path d="M6.25178 5.44888C6.12034 5.23773 5.87372 5.125 5.625 5.125C4.58947 5.125 3.75 4.28553 3.75 3.25C3.75 2.21447 4.58947 1.375 5.625 1.375C5.87372 1.375 6.12034 1.26227 6.25178 1.05112C6.2576 1.04178 6.26345 1.03247 6.26933 1.02318C6.48816 0.677756 6.37729 0.188667 5.97083 0.143919C5.85728 0.131417 5.74189 0.125 5.625 0.125C3.89911 0.125 2.5 1.52411 2.5 3.25C2.5 4.97589 3.89911 6.375 5.625 6.375C5.74189 6.375 5.85728 6.36858 5.97083 6.35608C6.37729 6.31133 6.48817 5.82224 6.26933 5.47682C6.26345 5.46753 6.2576 5.45822 6.25178 5.44888Z" fill="#A1AEBC"/>
<path d="M3.71524 12.0557C3.62064 11.8979 3.45366 11.7917 3.26966 11.7917H3.125C2.08947 11.7917 1.25 10.9522 1.25 9.91667C1.25 8.88113 2.08947 8.04167 3.125 8.04167H3.26966C3.45366 8.04167 3.62064 7.93544 3.71524 7.77761C3.94616 7.39235 3.69557 6.79167 3.24641 6.79167H3.125C1.39911 6.79167 0 8.19078 0 9.91667C0 11.6426 1.39911 13.0417 3.125 13.0417H3.24641C3.69557 13.0417 3.94616 12.441 3.71524 12.0557Z" fill="#A1AEBC"/>
<path d="M13.314 5.47682C13.0952 5.82224 13.206 6.31133 13.6125 6.35608C13.7261 6.36858 13.8414 6.375 13.9583 6.375C15.6842 6.375 17.0833 4.97589 17.0833 3.25C17.0833 1.52411 15.6842 0.125 13.9583 0.125C13.8414 0.125 13.7261 0.131418 13.6125 0.143919C13.206 0.188667 13.0952 0.677756 13.314 1.02318C13.3199 1.03247 13.3257 1.04178 13.3315 1.05112C13.463 1.26227 13.7096 1.375 13.9583 1.375C14.9939 1.375 15.8333 2.21447 15.8333 3.25C15.8333 4.28553 14.9939 5.125 13.9583 5.125C13.7096 5.125 13.463 5.23773 13.3315 5.44888C13.3257 5.45822 13.3199 5.46753 13.314 5.47682Z" fill="#A1AEBC"/>
<path d="M15.8681 12.0557C15.6372 12.441 15.8878 13.0417 16.3369 13.0417H16.4583C18.1842 13.0417 19.5833 11.6426 19.5833 9.91667C19.5833 8.19078 18.1842 6.79167 16.4583 6.79167H16.3369C15.8878 6.79167 15.6372 7.39235 15.8681 7.77761C15.9627 7.93544 16.1297 8.04167 16.3137 8.04167H16.4583C17.4939 8.04167 18.3333 8.88113 18.3333 9.91667C18.3333 10.9522 17.4939 11.7917 16.4583 11.7917H16.3137C16.1297 11.7917 15.9627 11.8979 15.8681 12.0557Z" fill="#A1AEBC"/>
</svg>
