<svg width="168" height="32" viewBox="0 0 168 32" fill="none" xmlns="http://www.w3.org/2000/svg">
<path d="M17.1508 32C13.461 32 10.3406 31.336 7.78959 30.0081C5.23861 28.6802 3.3026 26.8182 1.98156 24.4222C0.660521 21.9973 0 19.1394 0 15.8484C0 12.673 0.774404 9.90167 2.32321 7.5345C3.87202 5.13847 5.99024 3.29093 8.67787 1.99188C11.4111 0.66396 14.5315 0 18.039 0C19.8156 0 21.4328 0.115471 22.8905 0.346412C24.3482 0.548488 25.6236 0.822733 26.7169 1.16915C27.3091 1.37122 27.6052 1.67433 27.6052 2.07848L27.8102 8.66035C27.8102 9.1511 27.5369 9.39648 26.9902 9.39648C26.4892 9.39648 26.1703 9.20884 26.0336 8.83356L25.487 7.5345C24.4848 5.13847 23.346 3.49301 22.0705 2.59811C20.795 1.7032 19.0412 1.25575 16.8091 1.25575C13.4837 1.25575 10.7278 2.5115 8.54121 5.023C6.40022 7.50564 5.32972 11.1141 5.32972 15.8484C5.32972 20.7271 6.42299 24.4511 8.60954 27.0203C10.8416 29.5607 13.6887 30.8309 17.1508 30.8309C19.0184 30.8309 20.4306 30.571 21.3872 30.0514C22.3438 29.5318 22.8221 28.5647 22.8221 27.1502V17.6671C22.8221 17.0609 22.6627 16.6423 22.3438 16.4114C22.0705 16.1804 21.4555 16.0361 20.4989 15.9783L17.8341 15.8051C17.2419 15.7763 16.9458 15.6031 16.9458 15.2855C16.9458 14.968 17.2874 14.8092 17.9707 14.8092H30.4751C31.1584 14.8092 31.5 14.9824 31.5 15.3288C31.5 15.5886 31.2495 15.7474 30.7484 15.8051L29.7234 15.8917C28.7213 15.9783 28.1291 16.1516 27.9469 16.4114C27.7646 16.6712 27.6735 17.1042 27.6735 17.7104V29.4452C27.6735 29.7627 27.5369 30.0226 27.2636 30.2246C26.9902 30.3978 26.5119 30.5999 25.8286 30.8309C24.7354 31.1773 23.4826 31.4515 22.0705 31.6536C20.6583 31.8845 19.0184 32 17.1508 32Z" fill="url(#paint0_linear_1030_6004)"/>
<path d="M30.4763 32C29.9478 32 29.6835 31.8548 29.6835 31.5644C29.6835 31.3269 29.9125 31.1685 30.3706 31.0893L31.5862 30.9309C32.3262 30.8253 32.8019 30.6801 33.0133 30.4954C33.2599 30.3106 33.3832 29.941 33.3832 29.3867V6.10424C33.3832 5.5499 33.2599 5.18034 33.0133 4.99555C32.8019 4.81077 32.3262 4.66559 31.5862 4.56L30.3706 4.40162C29.9125 4.32242 29.6835 4.16404 29.6835 3.92646C29.6835 3.63609 29.9478 3.49091 30.4763 3.49091H40.1485C40.677 3.49091 40.9413 3.64929 40.9413 3.96606C40.9413 4.20364 40.7475 4.34882 40.3599 4.40162L38.9329 4.56C38.1929 4.63919 37.6996 4.78438 37.453 4.99555C37.2416 5.20673 37.1359 5.58949 37.1359 6.14384V28.3176C37.1359 29.2679 37.4882 29.9542 38.1929 30.3766C38.9329 30.7989 39.849 31.0101 40.9413 31.0101C41.7517 31.0101 42.5798 30.8913 43.4254 30.6537C44.3063 30.3898 45.0991 29.9146 45.8039 29.2283C46.5086 28.5156 47.0371 27.4861 47.3895 26.1398L48.0766 23.4869C48.1823 23.1437 48.4465 22.9721 48.8694 22.9721C49.3627 22.9721 49.5741 23.1965 49.5036 23.6453L48.8694 31.0893C48.7989 31.6964 48.3584 32 47.548 32H30.4763Z" fill="url(#paint1_linear_1030_6004)"/>
<path d="M51.0541 31.4182C50.4625 31.4182 50.1667 31.2907 50.1667 31.0356C50.1667 30.7806 50.4428 30.6148 50.9949 30.5383L51.8824 30.4235C52.6712 30.3215 53.2628 30.0792 53.6572 29.6966C54.0516 29.2886 54.3869 28.7275 54.6629 28.0134L63.833 4.10301C63.9119 3.84797 64.0302 3.68219 64.188 3.60568C64.3852 3.52916 64.5627 3.49091 64.7204 3.49091C64.9176 3.49091 65.0951 3.52916 65.2529 3.60568C65.4501 3.68219 65.5881 3.84797 65.667 4.10301L75.0145 28.3577C75.2906 29.0718 75.6062 29.5691 75.9611 29.8497C76.3161 30.1302 76.8683 30.3215 77.6176 30.4235L78.5051 30.5383C79.0572 30.6148 79.3333 30.7806 79.3333 31.0356C79.3333 31.2907 79.0375 31.4182 78.4459 31.4182H68.3293C67.7771 31.4182 67.501 31.2779 67.501 30.9974C67.501 30.7168 67.8363 30.5638 68.5068 30.5383L69.6308 30.4618C70.3013 30.4108 70.7155 30.2705 70.8732 30.0409C71.0704 29.8114 71.0704 29.4161 70.8732 28.855L68.6251 22.9252C68.3884 22.2621 67.7377 21.9306 66.6728 21.9306H60.4608C59.4353 21.9306 58.7845 22.2621 58.5085 22.9252L56.497 28.0516C55.9053 29.5054 56.497 30.3087 58.2718 30.4618L59.1592 30.5383C59.8297 30.6148 60.165 30.7678 60.165 30.9974C60.165 31.2779 59.8889 31.4182 59.3367 31.4182H51.0541ZM60.2833 20.7829H66.7911C67.4221 20.7829 67.6785 20.5661 67.5602 20.1325L63.7738 9.87975H63.478L59.5142 20.1325C59.3959 20.5661 59.6522 20.7829 60.2833 20.7829Z" fill="url(#paint2_linear_1030_6004)"/>
<path d="M87.4665 31.4182C86.8169 31.4182 86.0862 31.3657 85.2742 31.2607C84.4948 31.1558 83.7478 31.0245 83.0333 30.8671C82.3512 30.7096 81.8154 30.539 81.4256 30.3553C81.1983 30.2503 81.0196 30.1454 80.8897 30.0404C80.7923 29.9092 80.7436 29.6992 80.7436 29.4106L80.5 23.2302C80.5 22.7053 80.7111 22.4429 81.1333 22.4429C81.4906 22.4429 81.7342 22.6791 81.8641 23.1515L82.3025 24.6474C83.4068 28.4002 85.4691 30.2766 88.4896 30.2766C90.1134 30.2766 91.3963 29.8436 92.3382 28.9775C93.3125 28.0853 93.7997 26.8387 93.7997 25.2378C93.7997 23.6895 93.2963 22.2461 92.2895 20.9077C91.3151 19.5692 89.74 18.2439 87.5639 16.9318C85.1606 15.5409 83.4068 14.2025 82.3025 12.9165C81.1983 11.6043 80.6461 10.2134 80.6461 8.74381C80.6461 6.80179 81.4743 5.25342 83.1307 4.09871C84.8195 2.91775 86.9631 2.32727 89.5613 2.32727C90.5357 2.32727 91.4775 2.41912 92.3869 2.60283C93.2963 2.78653 94.0433 3.04897 94.6279 3.39013C94.8227 3.49511 94.9689 3.6132 95.0663 3.74442C95.1962 3.87564 95.2612 4.04622 95.2612 4.25617L95.4073 10.2003C95.4073 10.6465 95.1962 10.8695 94.774 10.8695C94.4817 10.8695 94.2706 10.6858 94.1407 10.3184L93.7997 9.33428C93.0852 7.31354 92.3382 5.8439 91.5587 4.92538C90.8117 3.98061 89.7237 3.50823 88.2947 3.50823C86.8981 3.50823 85.7776 3.87564 84.9332 4.61046C84.1213 5.34527 83.7153 6.38189 83.7153 7.72031C83.7153 8.84878 84.17 9.92476 85.0794 10.9483C85.9888 11.9718 87.5802 13.2183 89.8536 14.688C92.2895 16.2888 94.0595 17.8372 95.1637 19.3331C96.3005 20.8027 96.8688 22.3773 96.8688 24.0569C96.8688 25.5265 96.4629 26.8125 95.6509 27.9147C94.839 29.0169 93.7185 29.8829 92.2895 30.5128C90.8929 31.1164 89.2853 31.4182 87.4665 31.4182Z" fill="url(#paint3_linear_1030_6004)"/>
<path d="M105.514 31.4182C104.865 31.4182 104.134 31.3657 103.322 31.2607C102.543 31.1558 101.796 31.0245 101.081 30.8671C100.399 30.7096 99.8632 30.539 99.4734 30.3553C99.2461 30.2503 99.0675 30.1454 98.9376 30.0404C98.8401 29.9092 98.7914 29.6992 98.7914 29.4106L98.5478 23.2302C98.5478 22.7053 98.7589 22.4429 99.1811 22.4429C99.5384 22.4429 99.782 22.6791 99.9119 23.1515L100.35 24.6474C101.455 28.4002 103.517 30.2766 106.537 30.2766C108.161 30.2766 109.444 29.8436 110.386 28.9775C111.36 28.0853 111.848 26.8387 111.848 25.2378C111.848 23.6895 111.344 22.2461 110.337 20.9077C109.363 19.5692 107.788 18.2439 105.612 16.9318C103.208 15.5409 101.455 14.2025 100.35 12.9165C99.2461 11.6043 98.694 10.2134 98.694 8.74381C98.694 6.80179 99.5222 5.25342 101.179 4.09871C102.867 2.91775 105.011 2.32727 107.609 2.32727C108.583 2.32727 109.525 2.41912 110.435 2.60283C111.344 2.78653 112.091 3.04897 112.676 3.39013C112.871 3.49511 113.017 3.6132 113.114 3.74442C113.244 3.87564 113.309 4.04622 113.309 4.25617L113.455 10.2003C113.455 10.6465 113.244 10.8695 112.822 10.8695C112.53 10.8695 112.318 10.6858 112.189 10.3184L111.848 9.33428C111.133 7.31354 110.386 5.8439 109.607 4.92538C108.86 3.98061 107.772 3.50823 106.343 3.50823C104.946 3.50823 103.825 3.87564 102.981 4.61046C102.169 5.34527 101.763 6.38189 101.763 7.72031C101.763 8.84878 102.218 9.92476 103.127 10.9483C104.037 11.9718 105.628 13.2183 107.901 14.688C110.337 16.2888 112.107 17.8372 113.212 19.3331C114.348 20.8027 114.917 22.3773 114.917 24.0569C114.917 25.5265 114.511 26.8125 113.699 27.9147C112.887 29.0169 111.766 29.8829 110.337 30.5128C108.941 31.1164 107.333 31.4182 105.514 31.4182Z" fill="url(#paint4_linear_1030_6004)"/>
<path d="M114.577 31.4182C114.026 31.4182 113.75 31.2641 113.75 30.956C113.75 30.7038 113.989 30.5358 114.467 30.4517L115.736 30.2836C116.508 30.1716 117.005 30.0175 117.225 29.8214C117.483 29.6253 117.611 29.2331 117.611 28.6448V3.93697C117.611 3.34869 117.483 2.9565 117.225 2.7604C117.005 2.56431 116.508 2.41024 115.736 2.29818L114.467 2.1301C113.989 2.04606 113.75 1.87798 113.75 1.62586C113.75 1.31771 114.026 1.16364 114.577 1.16364H124.673C125.224 1.16364 125.5 1.33172 125.5 1.66788C125.5 1.92 125.298 2.07407 124.893 2.1301L123.404 2.29818C122.631 2.38222 122.117 2.5363 121.859 2.7604C121.638 2.98451 121.528 3.39071 121.528 3.97899V15.3244C121.528 15.6046 121.638 15.7727 121.859 15.8287C122.08 15.8847 122.282 15.7867 122.466 15.5345L131.513 4.73535C132.727 3.30667 132.616 2.49428 131.182 2.29818L129.913 2.1301C129.435 2.04606 129.196 1.86397 129.196 1.58384C129.196 1.3037 129.453 1.16364 129.968 1.16364H139.346C139.861 1.16364 140.119 1.31771 140.119 1.62586C140.119 1.93401 139.88 2.10209 139.401 2.1301L138.353 2.21414C137.213 2.29818 136.275 2.5503 135.54 2.9705C134.804 3.39071 133.977 4.14707 133.058 5.2396L126.824 12.6772C126.456 13.1534 126.438 13.6156 126.769 14.0638L137.14 28.939C137.434 29.3872 137.728 29.7094 138.022 29.9055C138.353 30.1015 138.739 30.2276 139.181 30.2836L140.505 30.4517C140.946 30.4797 141.167 30.6478 141.167 30.956C141.167 31.2641 140.909 31.4182 140.394 31.4182H130.575C130.06 31.4182 129.803 31.2641 129.803 30.956C129.803 30.6758 130.042 30.5077 130.52 30.4517L131.458 30.3677C132.892 30.2276 133.186 29.5413 132.34 28.3087L124.397 16.7952C124.25 16.571 124.084 16.459 123.9 16.459C123.716 16.431 123.532 16.529 123.349 16.7531L122.19 18.1398C121.933 18.4199 121.749 18.6861 121.638 18.9382C121.565 19.1903 121.528 19.5125 121.528 19.9046V28.6028C121.528 29.1911 121.638 29.5973 121.859 29.8214C122.117 30.0455 122.631 30.1996 123.404 30.2836L124.893 30.4517C125.298 30.5077 125.5 30.6618 125.5 30.9139C125.5 31.2501 125.224 31.4182 124.673 31.4182H114.577Z" fill="url(#paint5_linear_1030_6004)"/>
<path d="M139.721 31.4182C139.129 31.4182 138.833 31.2907 138.833 31.0356C138.833 30.7806 139.109 30.6148 139.662 30.5383L140.549 30.4235C141.338 30.3215 141.929 30.0792 142.324 29.6966C142.718 29.2886 143.054 28.7275 143.33 28.0134L152.5 4.10301C152.579 3.84797 152.697 3.68219 152.855 3.60568C153.052 3.52916 153.229 3.49091 153.387 3.49091C153.584 3.49091 153.762 3.52916 153.92 3.60568C154.117 3.68219 154.255 3.84797 154.334 4.10301L163.681 28.3577C163.957 29.0718 164.273 29.5691 164.628 29.8497C164.983 30.1302 165.535 30.3215 166.284 30.4235L167.172 30.5383C167.724 30.6148 168 30.7806 168 31.0356C168 31.2907 167.704 31.4182 167.113 31.4182H156.996C156.444 31.4182 156.168 31.2779 156.168 30.9974C156.168 30.7168 156.503 30.5638 157.173 30.5383L158.297 30.4618C158.968 30.4108 159.382 30.2705 159.54 30.0409C159.737 29.8114 159.737 29.4161 159.54 28.855L157.292 22.9252C157.055 22.2621 156.404 21.9306 155.339 21.9306H149.127C148.102 21.9306 147.451 22.2621 147.175 22.9252L145.164 28.0516C144.572 29.5054 145.164 30.3087 146.938 30.4618L147.826 30.5383C148.496 30.6148 148.832 30.7678 148.832 30.9974C148.832 31.2779 148.556 31.4182 148.003 31.4182H139.721ZM148.95 20.7829H155.458C156.089 20.7829 156.345 20.5661 156.227 20.1325L152.44 9.87975H152.145L148.181 20.1325C148.063 20.5661 148.319 20.7829 148.95 20.7829Z" fill="url(#paint6_linear_1030_6004)"/>
<defs>
<linearGradient id="paint0_linear_1030_6004" x1="84" y1="0" x2="84" y2="32" gradientUnits="userSpaceOnUse">
<stop stop-color="#28C5EE"/>
<stop offset="1" stop-color="#4172BD"/>
</linearGradient>
<linearGradient id="paint1_linear_1030_6004" x1="84" y1="0" x2="84" y2="32" gradientUnits="userSpaceOnUse">
<stop stop-color="#28C5EE"/>
<stop offset="1" stop-color="#4172BD"/>
</linearGradient>
<linearGradient id="paint2_linear_1030_6004" x1="84" y1="0" x2="84" y2="32" gradientUnits="userSpaceOnUse">
<stop stop-color="#28C5EE"/>
<stop offset="1" stop-color="#4172BD"/>
</linearGradient>
<linearGradient id="paint3_linear_1030_6004" x1="84" y1="0" x2="84" y2="32" gradientUnits="userSpaceOnUse">
<stop stop-color="#28C5EE"/>
<stop offset="1" stop-color="#4172BD"/>
</linearGradient>
<linearGradient id="paint4_linear_1030_6004" x1="84" y1="0" x2="84" y2="32" gradientUnits="userSpaceOnUse">
<stop stop-color="#28C5EE"/>
<stop offset="1" stop-color="#4172BD"/>
</linearGradient>
<linearGradient id="paint5_linear_1030_6004" x1="84" y1="0" x2="84" y2="32" gradientUnits="userSpaceOnUse">
<stop stop-color="#28C5EE"/>
<stop offset="1" stop-color="#4172BD"/>
</linearGradient>
<linearGradient id="paint6_linear_1030_6004" x1="84" y1="0" x2="84" y2="32" gradientUnits="userSpaceOnUse">
<stop stop-color="#28C5EE"/>
<stop offset="1" stop-color="#4172BD"/>
</linearGradient>
</defs>
</svg>
