<svg width="92" height="10" viewBox="0 0 92 10" fill="none" xmlns="http://www.w3.org/2000/svg">
<path d="M1.61 9.59C1.08333 9.59 0.683333 9.49333 0.41 9.3C0.136667 9.10667 0 8.87667 0 8.61C0 8.37667 0.0933333 8.14667 0.28 7.92C0.46 7.7 0.796667 7.44667 1.29 7.16C1.36333 7.12 1.40333 7.07667 1.41 7.03C1.42333 6.97667 1.39333 6.92667 1.32 6.88C1.13333 6.76 1.02 6.62 0.98 6.46C0.946667 6.3 0.99 6.18667 1.11 6.12L1.87 5.68C1.93667 5.64667 1.97 5.60667 1.97 5.56C1.97667 5.50667 1.94333 5.46 1.87 5.42C1.69 5.31333 1.55333 5.16333 1.46 4.97C1.37333 4.77 1.33 4.55333 1.33 4.32C1.33 3.96 1.41667 3.62667 1.59 3.32C1.77 3.00667 2.00667 2.75333 2.3 2.56C2.6 2.36667 2.93333 2.27 3.3 2.27C3.45333 2.27 3.58333 2.29 3.69 2.33C3.77 2.35667 3.83 2.33 3.87 2.25C3.98333 2.00333 4.12667 1.81 4.3 1.67C4.48 1.52333 4.66667 1.45 4.86 1.45C5 1.45 5.10667 1.48667 5.18 1.56C5.26 1.63333 5.3 1.73333 5.3 1.86C5.3 1.98667 5.26333 2.09 5.19 2.17C5.11667 2.25 5.02333 2.29 4.91 2.29C4.82333 2.29 4.75667 2.27333 4.71 2.24C4.67 2.20667 4.63333 2.17333 4.6 2.14C4.56667 2.10667 4.51333 2.09 4.44 2.09C4.29333 2.09 4.17667 2.17333 4.09 2.34C4.06333 2.4 4.05667 2.45667 4.07 2.51C4.08333 2.55667 4.11 2.60667 4.15 2.66C4.32333 2.88667 4.41 3.17333 4.41 3.52C4.41 3.83333 4.34 4.13333 4.2 4.42C4.06667 4.7 3.88 4.94 3.64 5.14C3.40667 5.33333 3.13667 5.46333 2.83 5.53C2.71 5.55667 2.6 5.59 2.5 5.63C2.40667 5.66333 2.28667 5.72667 2.14 5.82L1.74 6.06C1.64 6.12 1.61333 6.19667 1.66 6.29C1.70667 6.37667 1.83667 6.46 2.05 6.54L2.91 6.86C3.28333 6.99333 3.54 7.15667 3.68 7.35C3.82667 7.54333 3.9 7.77 3.9 8.03C3.9 8.35 3.79333 8.62667 3.58 8.86C3.37333 9.09333 3.09667 9.27333 2.75 9.4C2.40333 9.52667 2.02333 9.59 1.61 9.59ZM2 4.5C2 4.80667 2.04333 5.03 2.13 5.17C2.22333 5.30333 2.35333 5.37 2.52 5.37C2.73333 5.37 2.93 5.27333 3.11 5.08C3.29667 4.88 3.44667 4.62667 3.56 4.32C3.67333 4.00667 3.73 3.68333 3.73 3.35C3.73 3.01667 3.68667 2.79 3.6 2.67C3.51333 2.54333 3.38333 2.48 3.21 2.48C3.00333 2.48 2.80667 2.58 2.62 2.78C2.43333 2.97333 2.28333 3.22333 2.17 3.53C2.05667 3.83667 2 4.16 2 4.5ZM1.72 9.34C1.98 9.34 2.22333 9.29667 2.45 9.21C2.67667 9.12333 2.86 9 3 8.84C3.14667 8.68 3.22 8.49 3.22 8.27C3.22 8.05 3.16333 7.86667 3.05 7.72C2.94333 7.58 2.73 7.45 2.41 7.33L2.22 7.26C2.1 7.21333 1.98 7.19667 1.86 7.21C1.74 7.22333 1.62667 7.25667 1.52 7.31C1.16 7.51 0.916667 7.69667 0.79 7.87C0.663333 8.04333 0.6 8.23333 0.6 8.44C0.6 8.68667 0.69 8.89667 0.87 9.07C1.05 9.25 1.33333 9.34 1.72 9.34Z" fill="black"/>
<path d="M6.63367 7.53C6.41367 7.53 6.257 7.45 6.16367 7.29C6.07034 7.12333 6.06701 6.85333 6.15367 6.48L7.42367 1.03C7.45701 0.91 7.45701 0.826667 7.42367 0.78C7.39701 0.733333 7.33701 0.706667 7.24367 0.7L6.94367 0.67C6.84367 0.663333 6.80034 0.62 6.81367 0.54C6.827 0.48 6.87367 0.443333 6.95367 0.43C7.19367 0.39 7.40701 0.343333 7.59367 0.29C7.78034 0.23 7.93034 0.153333 8.04367 0.0599998C8.097 0.0199999 8.14701 0 8.19367 0C8.27367 0 8.30367 0.05 8.28367 0.15L6.80367 6.49C6.77034 6.63667 6.76367 6.75333 6.78367 6.84C6.81034 6.92 6.87367 6.96 6.97367 6.96C7.09367 6.96 7.22367 6.87333 7.36367 6.7C7.51034 6.52 7.67367 6.18333 7.85367 5.69C7.88034 5.60333 7.92701 5.56 7.99367 5.56C8.09367 5.56 8.12034 5.62 8.07367 5.74C7.93367 6.19333 7.777 6.55333 7.60367 6.82C7.43701 7.08 7.27034 7.26333 7.10367 7.37C6.93701 7.47667 6.78034 7.53 6.63367 7.53Z" fill="black"/>
<path d="M10.386 7.52C10.146 7.52 9.95935 7.41667 9.82602 7.21C9.69268 7.00333 9.62602 6.7 9.62602 6.3C9.62602 5.92 9.67935 5.54 9.78602 5.16C9.89268 4.77333 10.0393 4.40667 10.226 4.06C10.4127 3.71333 10.6227 3.40667 10.856 3.14C11.096 2.87333 11.346 2.66333 11.606 2.51C11.8727 2.35 12.136 2.27 12.396 2.27C12.5227 2.27 12.6427 2.29667 12.756 2.35C12.8693 2.39667 12.9627 2.47333 13.036 2.58C13.076 2.64 13.116 2.67 13.156 2.67C13.196 2.67 13.236 2.64 13.276 2.58C13.3493 2.47333 13.4093 2.40667 13.456 2.38C13.5027 2.34667 13.546 2.33 13.586 2.33C13.6727 2.33 13.706 2.37667 13.686 2.47L12.796 6.3C12.696 6.73333 12.7627 6.95 12.996 6.95C13.1493 6.95 13.286 6.84667 13.406 6.64C13.5327 6.43333 13.6593 6.11333 13.786 5.68C13.806 5.60667 13.8493 5.57 13.916 5.57C13.9627 5.57 13.9927 5.59 14.006 5.63C14.0193 5.67 14.0193 5.71667 14.006 5.77C13.8793 6.39667 13.7093 6.84667 13.496 7.12C13.2827 7.38667 13.026 7.52 12.726 7.52C12.466 7.52 12.2793 7.41 12.166 7.19C12.0593 6.97 12.0493 6.67 12.136 6.29L12.266 5.74C12.2793 5.69333 12.2693 5.66667 12.236 5.66C12.2093 5.65333 12.186 5.67 12.166 5.71C11.7993 6.38333 11.4727 6.85333 11.186 7.12C10.906 7.38667 10.6393 7.52 10.386 7.52ZM10.636 7.01C10.796 7.01 10.9727 6.91333 11.166 6.72C11.3593 6.52667 11.5493 6.27667 11.736 5.97C11.9293 5.66333 12.106 5.33333 12.266 4.98C12.426 4.62667 12.5527 4.28667 12.646 3.96C12.746 3.63333 12.796 3.35667 12.796 3.13C12.796 2.72333 12.6527 2.52 12.366 2.52C12.1927 2.52 12.0093 2.6 11.816 2.76C11.6227 2.91333 11.436 3.12333 11.256 3.39C11.0827 3.65667 10.9227 3.96 10.776 4.3C10.636 4.63333 10.5227 4.98333 10.436 5.35C10.3493 5.71 10.306 6.06333 10.306 6.41C10.306 6.64333 10.3327 6.80333 10.386 6.89C10.446 6.97 10.5293 7.01 10.636 7.01Z" fill="black"/>
<path d="M16.5923 7.52C16.3723 7.52 16.139 7.48667 15.8923 7.42C15.6523 7.35333 15.469 7.27 15.3423 7.17C15.2957 7.13 15.2757 7.07 15.2823 6.99L15.5023 5.68C15.5157 5.59333 15.5557 5.55 15.6223 5.55C15.6957 5.55 15.7323 5.59667 15.7323 5.69L15.7523 6.17C15.7657 6.55 15.8557 6.83 16.0223 7.01C16.1957 7.18333 16.4057 7.27 16.6523 7.27C16.8657 7.27 17.049 7.20333 17.2023 7.07C17.3557 6.93 17.4323 6.72667 17.4323 6.46C17.4323 6.30667 17.409 6.16667 17.3623 6.04C17.3157 5.90667 17.2423 5.76667 17.1423 5.62C17.0423 5.46667 16.9057 5.28333 16.7323 5.07C16.5057 4.77667 16.3357 4.52667 16.2223 4.32C16.1157 4.10667 16.0623 3.88667 16.0623 3.66C16.0623 3.24 16.1923 2.90333 16.4523 2.65C16.719 2.39667 17.0557 2.27 17.4623 2.27C17.6423 2.27 17.8157 2.29667 17.9823 2.35C18.1557 2.40333 18.299 2.48333 18.4123 2.59C18.4723 2.63667 18.4923 2.69667 18.4723 2.77L18.1923 4.11C18.1723 4.19667 18.1323 4.24 18.0723 4.24C18.0123 4.24 17.9757 4.19333 17.9623 4.1L17.9323 3.62C17.9057 3.22 17.8523 2.93333 17.7723 2.76C17.699 2.58667 17.5423 2.5 17.3023 2.5C17.089 2.5 16.9157 2.57333 16.7823 2.72C16.649 2.86667 16.5823 3.04333 16.5823 3.25C16.5823 3.47 16.6423 3.67333 16.7623 3.86C16.8823 4.04 17.0457 4.27 17.2523 4.55C17.5257 4.91 17.709 5.19667 17.8023 5.41C17.9023 5.62333 17.9523 5.84 17.9523 6.06C17.9523 6.34 17.889 6.59 17.7623 6.81C17.6423 7.03 17.479 7.20333 17.2723 7.33C17.0657 7.45667 16.839 7.52 16.5923 7.52Z" fill="black"/>
<path d="M20.8099 7.52C20.5899 7.52 20.3566 7.48667 20.1099 7.42C19.8699 7.35333 19.6866 7.27 19.5599 7.17C19.5133 7.13 19.4933 7.07 19.4999 6.99L19.7199 5.68C19.7333 5.59333 19.7733 5.55 19.8399 5.55C19.9133 5.55 19.9499 5.59667 19.9499 5.69L19.9699 6.17C19.9833 6.55 20.0733 6.83 20.2399 7.01C20.4133 7.18333 20.6233 7.27 20.8699 7.27C21.0833 7.27 21.2666 7.20333 21.4199 7.07C21.5733 6.93 21.6499 6.72667 21.6499 6.46C21.6499 6.30667 21.6266 6.16667 21.5799 6.04C21.5333 5.90667 21.4599 5.76667 21.3599 5.62C21.2599 5.46667 21.1233 5.28333 20.9499 5.07C20.7233 4.77667 20.5533 4.52667 20.4399 4.32C20.3333 4.10667 20.2799 3.88667 20.2799 3.66C20.2799 3.24 20.4099 2.90333 20.6699 2.65C20.9366 2.39667 21.2733 2.27 21.6799 2.27C21.8599 2.27 22.0333 2.29667 22.1999 2.35C22.3733 2.40333 22.5166 2.48333 22.6299 2.59C22.6899 2.63667 22.7099 2.69667 22.6899 2.77L22.4099 4.11C22.3899 4.19667 22.3499 4.24 22.2899 4.24C22.2299 4.24 22.1933 4.19333 22.1799 4.1L22.1499 3.62C22.1233 3.22 22.0699 2.93333 21.9899 2.76C21.9166 2.58667 21.7599 2.5 21.5199 2.5C21.3066 2.5 21.1333 2.57333 20.9999 2.72C20.8666 2.86667 20.7999 3.04333 20.7999 3.25C20.7999 3.47 20.8599 3.67333 20.9799 3.86C21.0999 4.04 21.2633 4.27 21.4699 4.55C21.7433 4.91 21.9266 5.19667 22.0199 5.41C22.1199 5.62333 22.1699 5.84 22.1699 6.06C22.1699 6.34 22.1066 6.59 21.9799 6.81C21.8599 7.03 21.6966 7.20333 21.4899 7.33C21.2833 7.45667 21.0566 7.52 20.8099 7.52Z" fill="black"/>
<path d="M28.8067 1.38C28.6801 1.38 28.5734 1.33667 28.4867 1.25C28.4067 1.15667 28.3667 1.04667 28.3667 0.92C28.3667 0.74 28.4201 0.596667 28.5267 0.49C28.6401 0.383333 28.7667 0.33 28.9067 0.33C29.0401 0.33 29.1501 0.373333 29.2367 0.46C29.3301 0.54 29.3767 0.646666 29.3767 0.78C29.3767 0.966667 29.3201 1.11333 29.2067 1.22C29.0934 1.32667 28.9601 1.38 28.8067 1.38ZM27.9867 7.53C27.7667 7.53 27.6101 7.45 27.5167 7.29C27.4234 7.12333 27.4201 6.85333 27.5067 6.48L28.2467 3.31C28.2801 3.16333 28.2834 3.05 28.2567 2.97C28.2367 2.88333 28.1767 2.84 28.0767 2.84C27.9567 2.84 27.8234 2.93 27.6767 3.11C27.5367 3.28333 27.3767 3.61667 27.1967 4.11C27.1701 4.19667 27.1234 4.24 27.0567 4.24C26.9567 4.24 26.9301 4.18 26.9767 4.06C27.1234 3.6 27.2767 3.24 27.4367 2.98C27.6034 2.72 27.7701 2.53667 27.9367 2.43C28.1034 2.32333 28.2567 2.27 28.3967 2.27C28.6301 2.27 28.7934 2.35333 28.8867 2.52C28.9801 2.68 28.9834 2.94667 28.8967 3.32L28.1567 6.49C28.1234 6.63667 28.1167 6.75333 28.1367 6.84C28.1634 6.92 28.2267 6.96 28.3267 6.96C28.4467 6.96 28.5767 6.87333 28.7167 6.7C28.8634 6.52 29.0267 6.18333 29.2067 5.69C29.2334 5.60333 29.2801 5.56 29.3467 5.56C29.4467 5.56 29.4734 5.62 29.4267 5.74C29.2867 6.19333 29.1301 6.55333 28.9567 6.82C28.7901 7.08 28.6234 7.26333 28.4567 7.37C28.2901 7.47667 28.1334 7.53 27.9867 7.53Z" fill="black"/>
<path d="M32.0076 7.52C31.7876 7.52 31.5542 7.48667 31.3076 7.42C31.0676 7.35333 30.8842 7.27 30.7576 7.17C30.7109 7.13 30.6909 7.07 30.6976 6.99L30.9176 5.68C30.9309 5.59333 30.9709 5.55 31.0376 5.55C31.1109 5.55 31.1476 5.59667 31.1476 5.69L31.1676 6.17C31.1809 6.55 31.2709 6.83 31.4376 7.01C31.6109 7.18333 31.8209 7.27 32.0676 7.27C32.2809 7.27 32.4642 7.20333 32.6176 7.07C32.7709 6.93 32.8476 6.72667 32.8476 6.46C32.8476 6.30667 32.8242 6.16667 32.7776 6.04C32.7309 5.90667 32.6576 5.76667 32.5576 5.62C32.4576 5.46667 32.3209 5.28333 32.1476 5.07C31.9209 4.77667 31.7509 4.52667 31.6376 4.32C31.5309 4.10667 31.4776 3.88667 31.4776 3.66C31.4776 3.24 31.6076 2.90333 31.8676 2.65C32.1342 2.39667 32.4709 2.27 32.8776 2.27C33.0576 2.27 33.2309 2.29667 33.3976 2.35C33.5709 2.40333 33.7142 2.48333 33.8276 2.59C33.8876 2.63667 33.9076 2.69667 33.8876 2.77L33.6076 4.11C33.5876 4.19667 33.5476 4.24 33.4876 4.24C33.4276 4.24 33.3909 4.19333 33.3776 4.1L33.3476 3.62C33.3209 3.22 33.2676 2.93333 33.1876 2.76C33.1142 2.58667 32.9576 2.5 32.7176 2.5C32.5042 2.5 32.3309 2.57333 32.1976 2.72C32.0642 2.86667 31.9976 3.04333 31.9976 3.25C31.9976 3.47 32.0576 3.67333 32.1776 3.86C32.2976 4.04 32.4609 4.27 32.6676 4.55C32.9409 4.91 33.1242 5.19667 33.2176 5.41C33.3176 5.62333 33.3676 5.84 33.3676 6.06C33.3676 6.34 33.3042 6.59 33.1776 6.81C33.0576 7.03 32.8942 7.20333 32.6876 7.33C32.4809 7.45667 32.2542 7.52 32.0076 7.52Z" fill="black"/>
<path d="M39.5044 7.52C39.091 7.52 38.7644 7.35 38.5244 7.01C38.2844 6.66333 38.1644 6.19667 38.1644 5.61C38.1644 5.17667 38.2344 4.76 38.3744 4.36C38.5144 3.96 38.6977 3.60333 38.9244 3.29C39.1577 2.97667 39.4144 2.73 39.6944 2.55C39.981 2.36333 40.2677 2.27 40.5544 2.27C40.9677 2.27 41.2944 2.44 41.5344 2.78C41.7744 3.12 41.8944 3.58667 41.8944 4.18C41.8944 4.61333 41.8244 5.03 41.6844 5.43C41.5444 5.83 41.3577 6.18667 41.1244 6.5C40.8977 6.81333 40.641 7.06333 40.3544 7.25C40.0744 7.43 39.791 7.52 39.5044 7.52ZM39.4844 7.28C39.6977 7.28 39.9044 7.17667 40.1044 6.97C40.311 6.76333 40.4977 6.49 40.6644 6.15C40.831 5.81 40.9644 5.43333 41.0644 5.02C41.1644 4.6 41.2144 4.18 41.2144 3.76C41.2144 2.92667 40.9977 2.51 40.5644 2.51C40.3577 2.51 40.151 2.61333 39.9444 2.82C39.7377 3.02 39.551 3.29 39.3844 3.63C39.2244 3.97 39.0944 4.35 38.9944 4.77C38.8944 5.18333 38.8444 5.6 38.8444 6.02C38.8444 6.86 39.0577 7.28 39.4844 7.28Z" fill="black"/>
<path d="M44.455 7.52C44.2083 7.52 44.0383 7.41 43.945 7.19C43.8583 6.96333 43.865 6.66667 43.965 6.3L44.755 3.4C44.8083 3.20667 44.8217 3.05667 44.795 2.95C44.7683 2.84333 44.7083 2.79 44.615 2.79C44.4617 2.79 44.305 2.90667 44.145 3.14C43.9917 3.37333 43.8583 3.69667 43.745 4.11C43.725 4.18333 43.6817 4.22 43.615 4.22C43.5217 4.22 43.4917 4.15333 43.525 4.02C43.6783 3.46 43.8783 3.03 44.125 2.73C44.3783 2.42333 44.655 2.27 44.955 2.27C45.195 2.27 45.355 2.38 45.435 2.6C45.515 2.82 45.5017 3.12 45.395 3.5L44.595 6.4C44.4683 6.86 44.5117 7.09 44.725 7.09C44.8583 7.09 45.0117 7 45.185 6.82C45.3583 6.64 45.5383 6.39333 45.725 6.08C45.9183 5.76667 46.1083 5.41 46.295 5.01C46.4817 4.61 46.6517 4.19 46.805 3.75C46.9583 3.31 47.085 2.87333 47.185 2.44C47.205 2.36667 47.2517 2.33 47.325 2.33H47.725C47.8183 2.33 47.855 2.37333 47.835 2.46L46.895 6.48C46.8217 6.79333 46.8783 6.95 47.065 6.95C47.345 6.95 47.6383 6.52667 47.945 5.68C47.9717 5.59333 48.0183 5.55 48.085 5.55C48.125 5.55 48.1517 5.56667 48.165 5.6C48.185 5.63333 48.185 5.67667 48.165 5.73C47.985 6.29667 47.7717 6.73667 47.525 7.05C47.2783 7.36333 47.0183 7.52 46.745 7.52C46.265 7.52 46.105 7.17 46.265 6.47L46.525 5.36C46.5383 5.31333 46.5283 5.28667 46.495 5.28C46.4683 5.27333 46.445 5.29 46.425 5.33C46.0383 6.13 45.6817 6.69667 45.355 7.03C45.0283 7.35667 44.7283 7.52 44.455 7.52Z" fill="black"/>
<path d="M50.2231 7.43C50.1298 7.43 50.0931 7.38667 50.1131 7.3L51.0631 3.31C51.0965 3.16333 51.0998 3.05 51.0731 2.97C51.0531 2.88333 50.9931 2.84 50.8931 2.84C50.7731 2.84 50.6398 2.93 50.4931 3.11C50.3531 3.28333 50.1931 3.61667 50.0131 4.11C49.9865 4.19667 49.9398 4.24 49.8731 4.24C49.7731 4.24 49.7465 4.18 49.7931 4.06C49.9398 3.6 50.0931 3.24 50.2531 2.98C50.4198 2.72 50.5865 2.53667 50.7531 2.43C50.9198 2.32333 51.0731 2.27 51.2131 2.27C51.4331 2.27 51.5898 2.35333 51.6831 2.52C51.7765 2.68 51.7798 2.94667 51.6931 3.32L51.5831 3.79C51.5765 3.83667 51.5865 3.86333 51.6131 3.87C51.6398 3.87667 51.6631 3.86 51.6831 3.82C51.9365 3.24 52.1665 2.83667 52.3731 2.61C52.5798 2.38333 52.8165 2.27 53.0831 2.27C53.2631 2.27 53.3965 2.32 53.4831 2.42C53.5765 2.51333 53.6231 2.64333 53.6231 2.81C53.6231 2.97667 53.5831 3.11 53.5031 3.21C53.4231 3.31 53.3198 3.36 53.1931 3.36C53.0865 3.36 53.0098 3.33333 52.9631 3.28C52.9165 3.22667 52.8798 3.16667 52.8531 3.1C52.8331 3.02667 52.8098 2.96333 52.7831 2.91C52.7565 2.85667 52.7131 2.83 52.6531 2.83C52.5531 2.83 52.4231 2.95667 52.2631 3.21C52.1031 3.46333 51.9298 3.80667 51.7431 4.24C51.5631 4.66667 51.3865 5.14667 51.2131 5.68C51.0465 6.21333 50.8998 6.76 50.7731 7.32C50.7531 7.39333 50.7065 7.43 50.6331 7.43H50.2231Z" fill="black"/>
<path d="M56.604 9.48C56.5173 9.48 56.474 9.44333 56.474 9.37C56.474 9.30333 56.5273 9.26333 56.634 9.25L56.774 9.23C56.9073 9.21 57.0073 9.17 57.074 9.11C57.134 9.05667 57.1807 8.95667 57.214 8.81L58.544 3.07C58.5573 3.01667 58.5473 2.97667 58.514 2.95C58.4873 2.91667 58.4473 2.91667 58.394 2.95C58.3273 2.98333 58.264 3.02 58.204 3.06C58.144 3.09333 58.084 3.13 58.024 3.17C57.964 3.21 57.914 3.22333 57.874 3.21C57.834 3.19 57.814 3.15667 57.814 3.11C57.814 3.06333 57.8473 3.01667 57.914 2.97C58.1007 2.84333 58.294 2.73333 58.494 2.64C58.6073 2.58667 58.6773 2.5 58.704 2.38L58.834 1.81C58.8673 1.67 58.954 1.6 59.094 1.6H59.274C59.354 1.6 59.414 1.62333 59.454 1.67C59.494 1.71667 59.504 1.78333 59.484 1.87L59.414 2.16C59.394 2.27333 59.4373 2.32 59.544 2.3C59.6973 2.28 59.844 2.27 59.984 2.27C60.4773 2.27 60.8807 2.41 61.194 2.69C61.5073 2.97 61.664 3.4 61.664 3.98C61.664 4.43333 61.5807 4.87333 61.414 5.3C61.2473 5.72 61.0273 6.09667 60.754 6.43C60.4807 6.76333 60.1807 7.03 59.854 7.23C59.5273 7.42333 59.2007 7.52 58.874 7.52C58.694 7.52 58.524 7.48333 58.364 7.41C58.264 7.36333 58.204 7.39 58.184 7.49L57.884 8.81C57.8507 8.95667 57.8507 9.05333 57.884 9.1C57.924 9.14667 58.0073 9.18 58.134 9.2L58.394 9.24C58.514 9.26 58.574 9.3 58.574 9.36C58.574 9.44 58.5173 9.48 58.404 9.48H56.604ZM58.464 6.28C58.344 6.94 58.4873 7.27 58.894 7.27C59.1273 7.27 59.364 7.17333 59.604 6.98C59.844 6.78 60.0673 6.51667 60.274 6.19C60.4807 5.85667 60.6473 5.48333 60.774 5.07C60.9007 4.65667 60.964 4.23333 60.964 3.8C60.964 3.35333 60.8673 3.03333 60.674 2.84C60.4807 2.64 60.1973 2.54 59.824 2.54C59.4907 2.54 59.3007 2.65333 59.254 2.88L58.464 6.28Z" fill="black"/>
<path d="M63.9559 7.52C63.7159 7.52 63.5293 7.41667 63.3959 7.21C63.2626 7.00333 63.1959 6.7 63.1959 6.3C63.1959 5.92 63.2493 5.54 63.3559 5.16C63.4626 4.77333 63.6093 4.40667 63.7959 4.06C63.9826 3.71333 64.1926 3.40667 64.4259 3.14C64.6659 2.87333 64.9159 2.66333 65.1759 2.51C65.4426 2.35 65.7059 2.27 65.9659 2.27C66.0926 2.27 66.2126 2.29667 66.3259 2.35C66.4393 2.39667 66.5326 2.47333 66.6059 2.58C66.6459 2.64 66.6859 2.67 66.7259 2.67C66.7659 2.67 66.8059 2.64 66.8459 2.58C66.9193 2.47333 66.9793 2.40667 67.0259 2.38C67.0726 2.34667 67.1159 2.33 67.1559 2.33C67.2426 2.33 67.2759 2.37667 67.2559 2.47L66.3659 6.3C66.2659 6.73333 66.3326 6.95 66.5659 6.95C66.7193 6.95 66.8559 6.84667 66.9759 6.64C67.1026 6.43333 67.2293 6.11333 67.3559 5.68C67.3759 5.60667 67.4193 5.57 67.4859 5.57C67.5326 5.57 67.5626 5.59 67.5759 5.63C67.5893 5.67 67.5893 5.71667 67.5759 5.77C67.4493 6.39667 67.2793 6.84667 67.0659 7.12C66.8526 7.38667 66.5959 7.52 66.2959 7.52C66.0359 7.52 65.8493 7.41 65.7359 7.19C65.6293 6.97 65.6193 6.67 65.7059 6.29L65.8359 5.74C65.8493 5.69333 65.8393 5.66667 65.8059 5.66C65.7793 5.65333 65.7559 5.67 65.7359 5.71C65.3693 6.38333 65.0426 6.85333 64.7559 7.12C64.4759 7.38667 64.2093 7.52 63.9559 7.52ZM64.2059 7.01C64.3659 7.01 64.5426 6.91333 64.7359 6.72C64.9293 6.52667 65.1193 6.27667 65.3059 5.97C65.4993 5.66333 65.6759 5.33333 65.8359 4.98C65.9959 4.62667 66.1226 4.28667 66.2159 3.96C66.3159 3.63333 66.3659 3.35667 66.3659 3.13C66.3659 2.72333 66.2226 2.52 65.9359 2.52C65.7626 2.52 65.5793 2.6 65.3859 2.76C65.1926 2.91333 65.0059 3.12333 64.8259 3.39C64.6526 3.65667 64.4926 3.96 64.3459 4.3C64.2059 4.63333 64.0926 4.98333 64.0059 5.35C63.9193 5.71 63.8759 6.06333 63.8759 6.41C63.8759 6.64333 63.9026 6.80333 63.9559 6.89C64.0159 6.97 64.0993 7.01 64.2059 7.01Z" fill="black"/>
<path d="M70.1623 7.52C69.9423 7.52 69.7089 7.48667 69.4623 7.42C69.2223 7.35333 69.0389 7.27 68.9123 7.17C68.8656 7.13 68.8456 7.07 68.8523 6.99L69.0723 5.68C69.0856 5.59333 69.1256 5.55 69.1923 5.55C69.2656 5.55 69.3023 5.59667 69.3023 5.69L69.3223 6.17C69.3356 6.55 69.4256 6.83 69.5923 7.01C69.7656 7.18333 69.9756 7.27 70.2223 7.27C70.4356 7.27 70.6189 7.20333 70.7723 7.07C70.9256 6.93 71.0023 6.72667 71.0023 6.46C71.0023 6.30667 70.9789 6.16667 70.9323 6.04C70.8856 5.90667 70.8123 5.76667 70.7123 5.62C70.6123 5.46667 70.4756 5.28333 70.3023 5.07C70.0756 4.77667 69.9056 4.52667 69.7923 4.32C69.6856 4.10667 69.6323 3.88667 69.6323 3.66C69.6323 3.24 69.7623 2.90333 70.0223 2.65C70.2889 2.39667 70.6256 2.27 71.0323 2.27C71.2123 2.27 71.3856 2.29667 71.5523 2.35C71.7256 2.40333 71.8689 2.48333 71.9823 2.59C72.0423 2.63667 72.0623 2.69667 72.0423 2.77L71.7623 4.11C71.7423 4.19667 71.7023 4.24 71.6423 4.24C71.5823 4.24 71.5456 4.19333 71.5323 4.1L71.5023 3.62C71.4756 3.22 71.4223 2.93333 71.3423 2.76C71.2689 2.58667 71.1123 2.5 70.8723 2.5C70.6589 2.5 70.4856 2.57333 70.3523 2.72C70.2189 2.86667 70.1523 3.04333 70.1523 3.25C70.1523 3.47 70.2123 3.67333 70.3323 3.86C70.4523 4.04 70.6156 4.27 70.8223 4.55C71.0956 4.91 71.2789 5.19667 71.3723 5.41C71.4723 5.62333 71.5223 5.84 71.5223 6.06C71.5223 6.34 71.4589 6.59 71.3323 6.81C71.2123 7.03 71.0489 7.20333 70.8423 7.33C70.6356 7.45667 70.4089 7.52 70.1623 7.52Z" fill="black"/>
<path d="M74.3798 7.52C74.1598 7.52 73.9265 7.48667 73.6798 7.42C73.4398 7.35333 73.2565 7.27 73.1298 7.17C73.0832 7.13 73.0632 7.07 73.0698 6.99L73.2898 5.68C73.3032 5.59333 73.3432 5.55 73.4098 5.55C73.4832 5.55 73.5198 5.59667 73.5198 5.69L73.5398 6.17C73.5532 6.55 73.6432 6.83 73.8098 7.01C73.9832 7.18333 74.1932 7.27 74.4398 7.27C74.6532 7.27 74.8365 7.20333 74.9898 7.07C75.1432 6.93 75.2198 6.72667 75.2198 6.46C75.2198 6.30667 75.1965 6.16667 75.1498 6.04C75.1032 5.90667 75.0298 5.76667 74.9298 5.62C74.8298 5.46667 74.6932 5.28333 74.5198 5.07C74.2932 4.77667 74.1232 4.52667 74.0098 4.32C73.9032 4.10667 73.8498 3.88667 73.8498 3.66C73.8498 3.24 73.9798 2.90333 74.2398 2.65C74.5065 2.39667 74.8432 2.27 75.2498 2.27C75.4298 2.27 75.6032 2.29667 75.7698 2.35C75.9432 2.40333 76.0865 2.48333 76.1998 2.59C76.2598 2.63667 76.2798 2.69667 76.2598 2.77L75.9798 4.11C75.9598 4.19667 75.9198 4.24 75.8598 4.24C75.7998 4.24 75.7632 4.19333 75.7498 4.1L75.7198 3.62C75.6932 3.22 75.6398 2.93333 75.5598 2.76C75.4865 2.58667 75.3298 2.5 75.0898 2.5C74.8765 2.5 74.7032 2.57333 74.5698 2.72C74.4365 2.86667 74.3698 3.04333 74.3698 3.25C74.3698 3.47 74.4298 3.67333 74.5498 3.86C74.6698 4.04 74.8332 4.27 75.0398 4.55C75.3132 4.91 75.4965 5.19667 75.5898 5.41C75.6898 5.62333 75.7398 5.84 75.7398 6.06C75.7398 6.34 75.6765 6.59 75.5498 6.81C75.4298 7.03 75.2665 7.20333 75.0598 7.33C74.8532 7.45667 74.6265 7.52 74.3798 7.52Z" fill="black"/>
<path d="M79.4774 1.38C79.3508 1.38 79.2441 1.33667 79.1574 1.25C79.0774 1.15667 79.0374 1.04667 79.0374 0.92C79.0374 0.74 79.0908 0.596667 79.1974 0.49C79.3108 0.383333 79.4374 0.33 79.5774 0.33C79.7108 0.33 79.8208 0.373333 79.9074 0.46C80.0008 0.54 80.0474 0.646666 80.0474 0.78C80.0474 0.966667 79.9908 1.11333 79.8774 1.22C79.7641 1.32667 79.6308 1.38 79.4774 1.38ZM78.6574 7.53C78.4374 7.53 78.2808 7.45 78.1874 7.29C78.0941 7.12333 78.0908 6.85333 78.1774 6.48L78.9174 3.31C78.9508 3.16333 78.9541 3.05 78.9274 2.97C78.9074 2.88333 78.8474 2.84 78.7474 2.84C78.6274 2.84 78.4941 2.93 78.3474 3.11C78.2074 3.28333 78.0474 3.61667 77.8674 4.11C77.8408 4.19667 77.7941 4.24 77.7274 4.24C77.6274 4.24 77.6008 4.18 77.6474 4.06C77.7941 3.6 77.9474 3.24 78.1074 2.98C78.2741 2.72 78.4408 2.53667 78.6074 2.43C78.7741 2.32333 78.9274 2.27 79.0674 2.27C79.3008 2.27 79.4641 2.35333 79.5574 2.52C79.6508 2.68 79.6541 2.94667 79.5674 3.32L78.8274 6.49C78.7941 6.63667 78.7874 6.75333 78.8074 6.84C78.8341 6.92 78.8974 6.96 78.9974 6.96C79.1174 6.96 79.2474 6.87333 79.3874 6.7C79.5341 6.52 79.6974 6.18333 79.8774 5.69C79.9041 5.60333 79.9508 5.56 80.0174 5.56C80.1174 5.56 80.1441 5.62 80.0974 5.74C79.9574 6.19333 79.8008 6.55333 79.6274 6.82C79.4608 7.08 79.2941 7.26333 79.1274 7.37C78.9608 7.47667 78.8041 7.53 78.6574 7.53Z" fill="black"/>
<path d="M83.0583 7.52C82.645 7.52 82.3183 7.35 82.0783 7.01C81.8383 6.66333 81.7183 6.19667 81.7183 5.61C81.7183 5.17667 81.7883 4.76 81.9283 4.36C82.0683 3.96 82.2516 3.60333 82.4783 3.29C82.7116 2.97667 82.9683 2.73 83.2483 2.55C83.535 2.36333 83.8216 2.27 84.1083 2.27C84.5216 2.27 84.8483 2.44 85.0883 2.78C85.3283 3.12 85.4483 3.58667 85.4483 4.18C85.4483 4.61333 85.3783 5.03 85.2383 5.43C85.0983 5.83 84.9116 6.18667 84.6783 6.5C84.4516 6.81333 84.1949 7.06333 83.9083 7.25C83.6283 7.43 83.3449 7.52 83.0583 7.52ZM83.0383 7.28C83.2516 7.28 83.4583 7.17667 83.6583 6.97C83.8649 6.76333 84.0516 6.49 84.2183 6.15C84.3849 5.81 84.5183 5.43333 84.6183 5.02C84.7183 4.6 84.7683 4.18 84.7683 3.76C84.7683 2.92667 84.5516 2.51 84.1183 2.51C83.9116 2.51 83.7049 2.61333 83.4983 2.82C83.2916 3.02 83.1049 3.29 82.9383 3.63C82.7783 3.97 82.6483 4.35 82.5483 4.77C82.4483 5.18333 82.3983 5.6 82.3983 6.02C82.3983 6.86 82.6116 7.28 83.0383 7.28Z" fill="black"/>
<path d="M87.3889 7.3L88.3389 3.31C88.3722 3.16333 88.3756 3.05 88.3489 2.97C88.3289 2.88333 88.2689 2.84 88.1689 2.84C88.0489 2.84 87.9156 2.93 87.7689 3.11C87.6289 3.28333 87.4689 3.61667 87.2889 4.11C87.2622 4.19667 87.2156 4.24 87.1489 4.24C87.0489 4.24 87.0222 4.18 87.0689 4.06C87.2156 3.6 87.3689 3.24 87.5289 2.98C87.6956 2.72 87.8622 2.53667 88.0289 2.43C88.1956 2.32333 88.3489 2.27 88.4889 2.27C88.7089 2.27 88.8656 2.35333 88.9589 2.52C89.0522 2.68 89.0556 2.94667 88.9689 3.32L88.7189 4.4C88.7122 4.44667 88.7222 4.47333 88.7489 4.48C88.7756 4.48667 88.7989 4.47 88.8189 4.43C89.0789 3.89 89.3289 3.46333 89.5689 3.15C89.8089 2.83 90.0356 2.60333 90.2489 2.47C90.4622 2.33667 90.6556 2.27 90.8289 2.27C91.0756 2.27 91.2556 2.37 91.3689 2.57C91.4822 2.77 91.4822 3.07667 91.3689 3.49L90.6089 6.39C90.5622 6.57667 90.5589 6.71667 90.5989 6.81C90.6389 6.90333 90.7122 6.95 90.8189 6.95C90.9522 6.95 91.0822 6.86333 91.2089 6.69C91.3422 6.51 91.4789 6.17333 91.6189 5.68C91.6389 5.60667 91.6822 5.57 91.7489 5.57C91.8022 5.57 91.8322 5.59 91.8389 5.63C91.8522 5.67 91.8522 5.71667 91.8389 5.77C91.7122 6.22333 91.5756 6.58 91.4289 6.84C91.2822 7.09333 91.1322 7.27 90.9789 7.37C90.8322 7.47 90.6822 7.52 90.5289 7.52C90.2889 7.52 90.1089 7.42 89.9889 7.22C89.8689 7.02 89.8622 6.71 89.9689 6.29L90.7389 3.39C90.8122 3.13 90.8222 2.95 90.7689 2.85C90.7222 2.75 90.6522 2.7 90.5589 2.7C90.4122 2.7 90.2456 2.79333 90.0589 2.98C89.8722 3.16 89.6822 3.41 89.4889 3.73C89.2956 4.04333 89.1056 4.4 88.9189 4.8C88.7322 5.2 88.5622 5.61667 88.4089 6.05C88.2622 6.48333 88.1422 6.90667 88.0489 7.32C88.0289 7.39333 87.9822 7.43 87.9089 7.43H87.4989C87.4056 7.43 87.3689 7.38667 87.3889 7.3Z" fill="black"/>
</svg>
